<mxfile host="65bd71144e">
    <diagram id="IfjgS74iztlNZPu8pu2S" name="ページ1">
        <mxGraphModel dx="843" dy="558" grid="1" gridSize="10" guides="1" tooltips="1" connect="1" arrows="1" fold="1" page="1" pageScale="1" pageWidth="1169" pageHeight="827" math="0" shadow="0">
            <root>
                <mxCell id="0"/>
                <mxCell id="1" parent="0"/>
                <mxCell id="5" value="" style="fillColor=#EFF0F3;dashed=0;verticalAlign=top;fontStyle=0;fontColor=#232F3D;" parent="1" vertex="1">
                    <mxGeometry x="100" y="200" width="690" height="360" as="geometry"/>
                </mxCell>
                <mxCell id="6" value="" style="shape=image;verticalLabelPosition=bottom;verticalAlign=top;imageAspect=0;image=data:image/svg+xml,PHN2ZyB4bWxucz0iaHR0cDovL3d3dy53My5vcmcvMjAwMC9zdmciIHJvbGU9ImltZyIgdmlld0JveD0iMC4wMyAtOC45NiAzNjIuMTggMjgyLjQzIj48ZGVmcz48c3R5bGU+LmNscy0xe2ZpbGw6I2ZmZn0uY2xzLTJ7ZmlsbDojMzI2Y2U1fTwvc3R5bGU+PC9kZWZzPjxnIGlkPSJpdHMtcHJvbm91bmNlZCI+PGcgaWQ9Imt5b29iLWN1dHRsZSI+PHBhdGggaWQ9Imtra2tra2siIGQ9Ik0xNi44NDEgMjQzLjU4NmMuOTUyLTEuMDcgMS45MDQtMi4xNDEgMi45NzQtMy4yMTJxMS40OTMtMS42NiAyLjk3NS0zLjMzYy45NTEtMS4xOTEgMS45MDMtMi4yNjIgMi43MzctMy4yMTRzMS42NjUtMS45MDMgMi4yNi0yLjYxN2gxMS41NGMtMi4yNiAyLjYxNy00LjUyMiA1LjIzNS02Ljc4MSA3LjYxNHEtMy4yMTMgMy41Ny03LjEzOCA3LjQ5NWE0OC4wNTIgNDguMDUyIDAgMCAxIDQuMDQ1IDQuMjg0YzEuNDI3IDEuNjY1IDIuNzM2IDMuMzMgNC4wNDUgNC45OTVhNTAuODA3IDUwLjgwNyAwIDAgMSAzLjU2OCA1LjIzNmMxLjA3IDEuNzg0IDIuMDI0IDMuMzMgMi43MzcgNC43NTlIMjguNjJjLS43MTUtMS4xOS0xLjU0Ny0yLjM4LTIuMzgtMy42OWE0My4zMiA0My4zMiAwIDAgMC0yLjg1Ni00LjE2MiAzNC4yMSAzNC4yMSAwIDAgMC0zLjIxMS00LjA0NSAyMC40NDIgMjAuNDQyIDAgMCAwLTMuMjEzLTMuMjEzdjE0Ljk5SDcuMjA1di00OS4xMzRsOS43NTUtMS41NDd2MjguNzkxIi8+PHBhdGggaWQ9InV1dXV1dXUiIGQ9Ik03My43MDkgMjY0LjQwNmE0Ni4yOTQgNDYuMjk0IDAgMCAxLTYuNDI0IDEuMzA5IDQ1Ljk4NiA0NS45ODYgMCAwIDEtOC4yMS41OTQgMTkuMTcgMTkuMTcgMCAwIDEtNy4zNzUtMS4xODkgMTAuOTI4IDEwLjkyOCAwIDAgMS02LjktOC4zMjggMjcuOTc3IDI3Ljk3NyAwIDAgMS0uNzE1LTYuNDI1di0xOS4xNTRoOS43NTd2MTcuOTY1YzAgMy4wOTMuMzU3IDUuMzU0IDEuMTkgNi43ODJzMi4zNzggMi4xNDEgNC42MzkgMi4xNDFhMTUuMTY5IDE1LjE2OSAwIDAgMCAyLjI2LS4xMTljLjgzMy0uMTE5IDEuNDI5LS4xMTkgMi4xNDItLjIzOHYtMjYuNTNoOS43NTVsLS4xMTkgMzMuMTkyIi8+PHBhdGggaWQ9ImJiYmJiYmIiIGQ9Ik0xMDUgMjQ4LjEwN2MwLTYuMzA1LTIuMjYyLTkuMzk4LTYuOTAyLTkuMzk4YTEyLjcwNiAxMi43MDYgMCAwIDAtMi45NzQuMzU2IDguOTkgOC45OSAwIDAgMC0yLjM3OS45NTJ2MTcuNzI3Yy40NzUuMTE5IDEuMDcuMTE5IDEuNzg0LjIzOC43MTQgMCAxLjU0Ni4xMiAyLjM4LjEyYTcuMzY2IDcuMzY2IDAgMCAwIDYuMDY4LTIuNzM4IDEyLjIgMTIuMiAwIDAgMCAyLjAyMi03LjI1N205Ljg3NC4yMzhhMjEuNTQzIDIxLjU0MyAwIDAgMS0xLjE5IDcuNDk2IDE1LjMxMyAxNS4zMTMgMCAwIDEtMy40NSA1LjcxIDE4LjI5NyAxOC4yOTcgMCAwIDEtNS41OTEgMy42ODggMjEuNzc0IDIxLjc3NCAwIDAgMS03LjYxNSAxLjE5Yy0xLjE4OSAwLTIuMzc5LS4xMi0zLjY4OC0uMjM4cy0yLjQ5Ny0uMjM4LTMuODA2LS4zNThjLTEuMTktLjExOC0yLjM4LS4zNTYtMy41Ny0uNTk1YTE1LjAzNyAxNS4wMzcgMCAwIDEtMi45NzQtLjgzMlYyMTYuMzRsOS43NTYtMS41NDZ2MTcuMTMyYTE2LjYxNyAxNi42MTcgMCAwIDEgMy40NS0xLjA3IDE5LjY5MSAxOS42OTEgMCAwIDEgMy44MDctLjM1NyAxNS4wNzQgMTUuMDc0IDAgMCAxIDYuNDI0IDEuMzA4IDEyLjg4NCAxMi44ODQgMCAwIDEgNC43NiAzLjU3IDE0LjM0OCAxNC4zNDggMCAwIDEgMi44NTUgNS43MSAzMy43ODUgMzMuNzg1IDAgMCAxIC44MzIgNy4yNTciLz48cGF0aCBpZD0iZWVlZWVlZTAiIGQ9Ik0xMjAuNzA0IDI0OC43MDJhMjAuMzAzIDIwLjMwMyAwIDAgMSAxLjQyNy03Ljk3IDE4LjIwNiAxOC4yMDYgMCAwIDEgMy42ODktNS43MTIgMTMuODY2IDEzLjg2NiAwIDAgMSA1LjIzMy0zLjQ1IDE1LjkgMTUuOSAwIDAgMSA2LjE4Ny0xLjE5IDE1LjIyNyAxNS4yMjcgMCAwIDEgMTEuNTQgNC41MjFjMi44NTUgMi45NzQgNC4yODIgNy4zNzggNC4yODIgMTMuMDg3YTEwLjg4NyAxMC44ODcgMCAwIDEtLjExOCAxLjkwNGMwIC41OTUtLjExOSAxLjE4OS0uMTE5IDEuNzg0aC0yMi4xM2E2LjUyMiA2LjUyMiAwIDAgMCAyLjg1NiA0Ljc1OSAxMS4zMiAxMS4zMiAwIDAgMCA2LjY2MiAxLjc4NCAyNS4yMTIgMjUuMjEyIDAgMCAwIDUuMjM1LS40NzUgMjEuMzQyIDIxLjM0MiAwIDAgMCA0LjI4My0xLjE5bDEuMzA4IDcuOTdjLS40NzYuMjM5LTEuMTkuNDc3LTIuMTQuODMzYTExLjk5NCAxMS45OTQgMCAwIDEtMi45NzYuNTk2IDI2Ljg1NSAyNi44NTUgMCAwIDEtMy40NS40NzVjLTEuMTkuMTItMi40OTcuMjM4LTMuNjg4LjIzOGEyMC45MiAyMC45MiAwIDAgMS04LjA5LTEuNDI3IDE3LjUxNyAxNy41MTcgMCAwIDEtNS43MS0zLjY4OCAxNy4xNzIgMTcuMTcyIDAgMCAxLTMuMzMtNS43MSAyNy45NDQgMjcuOTQ0IDAgMCAxLS45NTQtNy4xMzltMjIuOTYyLTMuODA3YTcuNjkyIDcuNjkyIDAgMCAwLS40NzYtMi4zOCA3LjIzMiA3LjIzMiAwIDAgMC0xLjA3LTIuMTQxIDUuNjg0IDUuNjg0IDAgMCAwLTQuNzYtMi4xNDIgNy4xODggNy4xODggMCAwIDAtMi44NTUuNTk1IDQuNzMyIDQuNzMyIDAgMCAwLTEuOTAzIDEuNDI4IDYuMjQgNi4yNCAwIDAgMC0xLjE5IDIuMTQyIDE3LjM5NiAxNy4zOTYgMCAwIDAtLjU5NSAyLjM4aDEyLjg1Ii8+PHBhdGggaWQ9InJycnJycnIiIGQ9Ik0xODEuMjYgMjM5Ljc4YTE3Ljg3NSAxNy44NzUgMCAwIDAtMy4wOTQtLjU5NiAxOS42ODggMTkuNjg4IDAgMCAwLTMuODA3LS4zNTcgMjAuOTc3IDIwLjk3NyAwIDAgMC0yLjI2LjIzOCAxOC42ODcgMTguNjg3IDAgMCAwLTEuOTA0LjM1N3YyNi4yOTNoLTkuNzU2di0zMi43MTdhNTAuNjA2IDUwLjYwNiAwIDAgMSA2LjE4Ni0xLjY2NiAzMy40NjggMzMuNDY4IDAgMCAxIDcuOTcxLS44MzIgMTEuNTggMTEuNTggMCAwIDEgMS45MDQuMTE4IDE2LjI1NiAxNi4yNTYgMCAwIDEgMi4yNi4yMzhjLjcxNS4xMiAxLjQyOC4yMzggMi4yNjEuMzU3LjcxMy4xMiAxLjQyOC4zNTggMS45MDMuNDc2bC0xLjY2NSA4LjA5Ii8+PHBhdGggaWQ9Im5ubm5ubm4iIGQ9Ik0xODguMTYgMjMyLjQwM2E1Ny41MjQgNTcuNTI0IDAgMCAxIDE0LjYzMy0xLjkwMyAxOC4xNDcgMTguMTQ3IDAgMCAxIDcuMjU3IDEuMTg5IDEwLjE5MSAxMC4xOTEgMCAwIDEgNC42NCAzLjIxMiAxMy44OTcgMTMuODk3IDAgMCAxIDIuMzggNC45OTcgMjYuNTQgMjYuNTQgMCAwIDEgLjcxMyA2LjQyNHYxOS4zOTNoLTkuNzU2di0xOC4yMDFjMC0zLjA5NC0uMzU2LTUuMzU0LTEuMTktNi42NjNzLTIuMzc5LTEuOTA0LTQuNjQtMS45MDRhMTUuMTcgMTUuMTcgMCAwIDAtMi4yNi4xMiAxMS43ODcgMTEuNzg3IDAgMCAwLTIuMTQuMjM3djI2LjUzMWgtOS42Mzh2LTMzLjQzIi8+PHBhdGggaWQ9ImVlZWVlZWUxIiBkPSJNMjI1LjA0IDI0OC43MDJhMjAuMzAxIDIwLjMwMSAwIDAgMSAxLjQyNy03Ljk3IDE4LjIwNiAxOC4yMDYgMCAwIDEgMy42OS01LjcxMiAxMy44NjYgMTMuODY2IDAgMCAxIDUuMjM0LTMuNDUgMTUuOSAxNS45IDAgMCAxIDYuMTg3LTEuMTkgMTUuMjI3IDE1LjIyNyAwIDAgMSAxMS41NCA0LjUyMWMyLjg1NCAyLjk3NCA0LjI4MiA3LjM3OCA0LjI4MiAxMy4wODdhMTAuODg0IDEwLjg4NCAwIDAgMS0uMTE5IDEuOTA0YzAgLjU5NS0uMTIgMS4xODktLjEyIDEuNzg0aC0yMi4xMjdhNi41MjIgNi41MjIgMCAwIDAgMi44NTYgNC43NTkgMTEuMzIgMTEuMzIgMCAwIDAgNi42NiAxLjc4NCAyNS4yMTMgMjUuMjEzIDAgMCAwIDUuMjM3LS40NzUgMjEuMzQgMjEuMzQgMCAwIDAgNC4yODItMS4xOWwxLjMwOSA3Ljk3Yy0uNDc2LjIzOS0xLjE5LjQ3Ny0yLjE0Mi44MzNhMTEuOTkyIDExLjk5MiAwIDAgMS0yLjk3NC41OTYgMjYuODYgMjYuODYgMCAwIDEtMy40NS40NzVjLTEuMTkuMTItMi40OTkuMjM4LTMuNjg4LjIzOGEyMC45MiAyMC45MiAwIDAgMS04LjA5LTEuNDI3IDE3LjUxNiAxNy41MTYgMCAwIDEtNS43MS0zLjY4OCAxNy4xNzIgMTcuMTcyIDAgMCAxLTMuMzMyLTUuNzEgMjcuOTM4IDI3LjkzOCAwIDAgMS0uOTUyLTcuMTM5bTIyLjk2MS0zLjgwN2E3LjY5MyA3LjY5MyAwIDAgMC0uNDc1LTIuMzggNy4yMzMgNy4yMzMgMCAwIDAtMS4wNzEtMi4xNDEgNS42ODQgNS42ODQgMCAwIDAtNC43Ni0yLjE0MiA3LjE4OCA3LjE4OCAwIDAgMC0yLjg1NS41OTUgNC43MzIgNC43MzIgMCAwIDAtMS45MDMgMS40MjggNi4yNCA2LjI0IDAgMCAwLTEuMTkgMi4xNDIgMTcuMzg4IDE3LjM4OCAwIDAgMC0uNTk0IDIuMzhoMTIuODQ4Ii8+PHBhdGggaWQ9InR0dHR0dHQiIGQ9Ik0yNjQuNjU3IDIyMi42NDdsOS43NTYtMS41NDZ2MTAuMTEyaDExLjY2djguMDloLTExLjY2djEyLjEzNWE5LjU2NiA5LjU2NiAwIDAgMCAxLjA3IDQuODc4Yy43MTUgMS4xOSAyLjI2MSAxLjc4NSA0LjQwMyAxLjc4NWEyOS4xNjcgMjkuMTY3IDAgMCAwIDMuMjEyLS4yMzggMTkuMzQ0IDE5LjM0NCAwIDAgMCAzLjA5My0uODMzbDEuNDI3IDcuNjE0YTE4Ljk0OCAxOC45NDggMCAwIDEtMy45MjYgMS4xOSAyMi44NzIgMjIuODcyIDAgMCAxLTUuMzU0LjQ3NSAxOC4xOCAxOC4xOCAwIDAgMS02LjY2LTEuMDcgMTEuMDEgMTEuMDEgMCAwIDEtNC4xNjUtMi45NzUgMTEuODA0IDExLjgwNCAwIDAgMS0yLjI2MS00Ljc1OCAzMC44MzQgMzAuODM0IDAgMCAxLS41OTQtNi4wNjh2LTI4Ljc5MSIvPjxwYXRoIGlkPSJlZWVlZWVlMiIgZD0iTTI5MS4wNjkgMjQ4LjcwMmEyMC4zIDIwLjMgMCAwIDEgMS40MjgtNy45NyAxOC4yMDYgMTguMjA2IDAgMCAxIDMuNjg4LTUuNzEyIDEzLjg2NiAxMy44NjYgMCAwIDEgNS4yMzQtMy40NSAxNS45IDE1LjkgMCAwIDEgNi4xODctMS4xOSAxNS4yMjcgMTUuMjI3IDAgMCAxIDExLjU0IDQuNTIxYzIuODU2IDIuOTc0IDQuMjgzIDcuMzc4IDQuMjgzIDEzLjA4N2ExMC44ODUgMTAuODg1IDAgMCAxLS4xMiAxLjkwNGMwIC41OTUtLjExOSAxLjE4OS0uMTE5IDEuNzg0aC0yMi4xMjhhNi41MjIgNi41MjIgMCAwIDAgMi44NTYgNC43NTkgMTEuMzIgMTEuMzIgMCAwIDAgNi42NjEgMS43ODQgMjUuMjEzIDI1LjIxMyAwIDAgMCA1LjIzNi0uNDc1IDIxLjM0IDIxLjM0IDAgMCAwIDQuMjgyLTEuMTlsMS4zMSA3Ljk3Yy0uNDc2LjIzOS0xLjE5LjQ3Ny0yLjE0My44MzNhMTEuOTkyIDExLjk5MiAwIDAgMS0yLjk3NC41OTYgMjYuODU2IDI2Ljg1NiAwIDAgMS0zLjQ1LjQ3NWMtMS4xOS4xMi0yLjQ5Ny4yMzgtMy42ODguMjM4YTIwLjkyIDIwLjkyIDAgMCAxLTguMDktMS40MjcgMTcuNTE2IDE3LjUxNiAwIDAgMS01LjcxLTMuNjg4IDE3LjE3MiAxNy4xNzIgMCAwIDEtMy4zMy01LjcxIDIzLjUyNSAyMy41MjUgMCAwIDEtLjk1My03LjEzOW0yMi44NDMtMy44MDdhNy42OTIgNy42OTIgMCAwIDAtLjQ3Ny0yLjM4IDcuMjMyIDcuMjMyIDAgMCAwLTEuMDctMi4xNDEgNS42ODQgNS42ODQgMCAwIDAtNC43NTktMi4xNDIgNy4xODggNy4xODggMCAwIDAtMi44NTYuNTk1IDQuNzMyIDQuNzMyIDAgMCAwLTEuOTA0IDEuNDI4IDYuMjQgNi4yNCAwIDAgMC0xLjE4OCAyLjE0MiAxNy4zOTEgMTcuMzkxIDAgMCAwLS41OTYgMi4zOGgxMi44NSIvPjxwYXRoIGlkPSJzc3Nzc3NzIiBkPSJNMzQwLjY4IDI1OC41NzZhOS43NzYgOS43NzYgMCAwIDAgMy44MDctLjQ3NSAyLjA4NCAyLjA4NCAwIDAgMCAxLjA3LTIuMDIzYzAtLjgzMy0uNDc1LTEuNDI3LTEuNDI3LTIuMDIyYTIyLjU2NyAyMi41NjcgMCAwIDAtNC40MDMtMi4wMjNjLTEuNTQ2LS41OTUtMi45NzQtMS4xOS00LjE2Mi0xLjc4NWExMS44OTQgMTEuODk0IDAgMCAxLTMuMDk1LTIuMTQxIDkuMzA0IDkuMzA0IDAgMCAxLTIuMDIyLTMuMDk0IDExLjUyNiAxMS41MjYgMCAwIDEtLjcxNC00LjI4MiA5LjA1MiA5LjA1MiAwIDAgMSAzLjU2OS03LjYxNGMyLjM4LTEuOTA0IDUuNzExLTIuODU2IDkuODc1LTIuODU2YTMzLjg0MiAzMy44NDIgMCAwIDEgNi4wNjguNTk1IDIxLjk5NyAyMS45OTcgMCAwIDEgNC41MiAxLjE5MWwtMS42NjUgNy42MTRjLTEuMTktLjM1OC0yLjM4LS43MTUtMy42OS0xLjA3MWExNi42NDUgMTYuNjQ1IDAgMCAwLTQuNC0uNDc3Yy0zLjA5NCAwLTQuNTIyLjgzMy00LjUyMiAyLjQ5OGEzLjQ3NCAzLjQ3NCAwIDAgMCAuMjM4IDEuMDcyIDEuOTk4IDEuOTk4IDAgMCAwIC44MzMuOTUyYy4zNTcuMjM4Ljk1Mi41OTQgMS41NDcuOTUxLjcxNC4zNTcgMS41NDYuNTk1IDIuNjE3IDEuMDcxYTM5LjI0MyAzOS4yNDMgMCAwIDEgNS4zNTQgMi4zNzkgOC44ODIgOC44ODIgMCAwIDEgMy4yMTMgMi40OTkgNi4yMTQgNi4yMTQgMCAwIDEgMS42NjUgMi45NzQgMTIuMzQ2IDEyLjM0NiAwIDAgMSAuNDc2IDMuODA3IDguODY4IDguODY4IDAgMCAxLTMuODA4IDcuNzM0Yy0yLjQ5OCAxLjc4NC02LjA2NyAyLjYxNi0xMC44MjYgMi42MTZhMjcuNTAyIDI3LjUwMiAwIDAgMS03LjYxMy0uODMyIDIxLjcxNyAyMS43MTcgMCAwIDEtNC4xNjQtMS4zMWwxLjY2NS03Ljk3YTM2LjM2IDM2LjM2IDAgMCAwIDUuMTE2IDEuNTQ2IDIxLjg5NCAyMS44OTQgMCAwIDAgNC44NzcuNDc2Ii8+PC9nPjwvZz48cGF0aCBkPSJNNzYuNTIzIDEyNi45OTJoMTAuNjE5djguNDMyaC0xMC42MnoiIGNsYXNzPSJjbHMtMSIvPjxwYXRoIGQ9Ik0yMDAuNjg4IDEyMC4wNDdhMy41OSAzLjU5IDAgMCAwLS44NTUtLjA2NSAzLjY4NSAzLjY4NSAwIDAgMC0xLjQyNS4zNyAzLjcyNSAzLjcyNSAwIDAgMC0xLjgwMyA0LjgyNWwtLjAyNi4wMzcgOC41MjggMjAuNjAzYTQzLjUzIDQzLjUzIDAgMCAwIDE3LjU5NS0yMi4xMDJsLTIxLjk3Ni0zLjcxNHptLTM0LjE5NCAyLjkyYTMuNzIgMy43MiAwIDAgMC0zLjU2OC0yLjg5NCAzLjY1NiAzLjY1NiAwIDAgMC0uNzMzLjA2NWwtLjAzNy0uMDQ1LTIxLjc4NSAzLjY5OGE0My42OTUgNDMuNjk1IDAgMCAwIDE3LjU0IDIxLjk0Nmw4LjQ0Mi0yMC4zOTktLjA2Ni0uMDhhMy42ODMgMy42ODMgMCAwIDAgLjIwNy0yLjI5MXptMTguMjQ1IDhhMy43MTggMy43MTggMCAwIDAtNi41NTcuMDA4aC0uMDE4bC0xMC43MTMgMTkuMzcyYTQzLjYzNyA0My42MzcgMCAwIDAgMjMuODE1IDEuMjI1cTIuMTk3LS41IDQuMjkyLTEuMTk5bC0xMC43MzgtMTkuNDA3em0zMy45MTQtNDVMMjAyLjE3IDEwMC43MmwuMDA5LjA0N2EzLjcyNSAzLjcyNSAwIDAgMCAxLjQ2IDYuMzk1bC4wMi4wODkgMjEuMzUgNi4xNWE0NC4yNzggNDQuMjc4IDAgMCAwLTYuMzU2LTI3LjQzMnpNMTg4LjAzIDg3LjYyYTMuNzI1IDMuNzI1IDAgMCAwIDUuOTEzIDIuODRsLjA2NS4wMjggMTguMDM2LTEyLjc4OWE0My44NSA0My44NSAwIDAgMC0yNS4yODctMTIuMTlsMS4yNTMgMjIuMTA1em0tMTkuMSAyLjkyMmEzLjcyIDMuNzIgMCAwIDAgNS45MDQtMi44NWwuMDkyLS4wNDQgMS4yNTMtMjIuMTM5YTQ0LjY4IDQ0LjY4IDAgMCAwLTQuNTAxLjc3NSA0My40NjcgNDMuNDY3IDAgMCAwLTIwLjkzNyAxMS40MDlsMTguMTU0IDEyLjg2OXptLTkuNjc4IDE2LjcyOGEzLjcyIDMuNzIgMCAwIDAgMS40NjItNi4zOTZsLjAxOC0uMDg3LTE2LjU3NC0xNC44MjVhNDMuNDU0IDQzLjQ1NCAwIDAgMC02LjE2OCAyNy41MTFsMjEuMjQ1LTYuMTN6bTE2LjA5OCA2LjUxMmw2LjExNCAyLjk0IDYuMDk2LTIuOTMzIDEuNTE0LTYuNTgyLTQuMjE5LTUuMjc2aC02Ljc5bC00LjIzMSA1LjI2OHoiIGNsYXNzPSJjbHMtMiIvPjxwYXRoIGQ9Ik0yODIuNTM4IDEyNi43NDhsLTE3LjQyMi03NS42NzVBMTMuNjAyIDEzLjYwMiAwIDAgMCAyNTcuODIzIDQyTDE4Ny4zMDIgOC4zM2ExMy41ODkgMTMuNTg5IDAgMCAwLTExLjcwNSAwTDEwNS4wOSA0Mi4wMThhMTMuNTk4IDEzLjU5OCAwIDAgMC03LjI5NSA5LjA3MmwtMTcuMzk0IDc1LjY3M2ExMy4zMTUgMTMuMzE1IDAgMCAwLS4wMDQgNS44MSAxMy41MDUgMTMuNTA1IDAgMCAwIC40OTEgMS43MTggMTMuMTAxIDEzLjEwMSAwIDAgMCAxLjM0MyAyLjcyNmMuMjM5LjM2NS40OTEuNzIuNzY1IDEuMDY0bDQ4LjgwNCA2MC42NzhjLjIxMy4yNjQuNDQ4LjUwNS42ODEuNzVhMTMuNDIzIDEzLjQyMyAwIDAgMCAyLjU3NCAyLjEzMyAxMy45MjQgMTMuOTI0IDAgMCAwIDMuODU3IDEuNjc3IDEzLjI5OCAxMy4yOTggMCAwIDAgMy40My40NzNoLjc1OWw3Ny41MDQtLjAxOGExMi45OTYgMTIuOTk2IDAgMCAwIDEuNDEtLjA4MyAxMy40NyAxMy40NyAwIDAgMCAxLjk4OS0uMzc4IDEzLjg3IDEzLjg3IDAgMCAwIDEuMzgxLS40NDJjLjM1My0uMTM1LjcwNS0uMjcgMS4wNDUtLjQzM2ExMy45NDEgMTMuOTQxIDAgMCAwIDEuNDc5LS44MjIgMTMuMzA0IDEzLjMwNCAwIDAgMCAzLjIzNy0yLjg2NWwxLjQ4OC0xLjg1IDQ3LjI5OS01OC44NGExMy4xODUgMTMuMTg1IDAgMCAwIDIuMTA4LTMuNzg1IDEzLjY3IDEzLjY3IDAgMCAwIC41LTEuNzI0IDEzLjI4MiAxMy4yODIgMCAwIDAtLjAwNC01LjgwOXptLTczLjE0NyAyOS40MzJhMTQuNTE1IDE0LjUxNSAwIDAgMCAuNzAzIDEuNzAzIDMuMzE0IDMuMzE0IDAgMCAwLS4zMjcgMi40OSAzOS4zNzMgMzkuMzczIDAgMCAwIDMuNzQyIDYuNyAzNS4wNjUgMzUuMDY1IDAgMCAxIDIuMjYzIDMuMzY0Yy4xNy4zMTUuMzkyLjgwMy41NTMgMS4xMzZhNC4yNCA0LjI0IDAgMSAxLTcuNjMgMy42MDdjLS4xNjEtLjMzLS4zODUtLjc3LS41MjItMS4wODJhMzUuMjc1IDM1LjI3NSAwIDAgMS0xLjIyNS0zLjg2OCAzOS4zMDUgMzkuMzA1IDAgMCAwLTIuODk2LTcuMDk3IDMuMzM1IDMuMzM1IDAgMCAwLTIuMTU0LTEuMzA3Yy0uMTM1LS4yMzMtLjYzNS0xLjE0OS0uOTAzLTEuNjIzYTU0LjYxNyA1NC42MTcgMCAwIDEtMzguOTQ4LS4xbC0uOTU1IDEuNzMxYTMuNDI5IDMuNDI5IDAgMCAwLTEuODE5Ljg4NiAyOS41MTggMjkuNTE4IDAgMCAwLTMuMjY4IDcuNTgyIDM0Ljg5OCAzNC44OTggMCAwIDEtMS4yMTggMy44NjhjLS4xMzUuMzEtLjM2MS43NDQtLjUyMiAxLjA3M3YuMDA5bC0uMDA3LjAwOGE0LjIzOCA0LjIzOCAwIDEgMS03LjYxOS0zLjYxNmMuMTU5LS4zMzUuMzcyLS44Mi41NC0xLjEzNWEzNS4xNzggMzUuMTc4IDAgMCAxIDIuMjYyLTMuMzczIDQxLjIyNyA0MS4yMjcgMCAwIDAgMy44Mi02Ljg2NiA0LjE4OCA0LjE4OCAwIDAgMC0uMzc2LTIuMzg3bC43NjgtMS44NGE1NC45MjIgNTQuOTIyIDAgMCAxLTI0LjMzOC0zMC4zODdsLTEuODM5LjMxM2E0LjY4IDQuNjggMCAwIDAtMi40MjgtLjg1NSAzOS41MjUgMzkuNTI1IDAgMCAwLTcuMzU2IDIuMTY1IDM1LjU4NSAzNS41ODUgMCAwIDEtMy43ODcgMS40NWMtLjMwNS4wODQtLjc0NS4xNjgtMS4wOTMuMjQ0LS4wMjguMDEtLjA1Mi4wMjItLjA4LjAyOWEuNjAzLjYwMyAwIDAgMS0uMDY1LjAwNiA0LjIzNiA0LjIzNiAwIDEgMS0xLjg3NC04LjIyNGwuMDYxLS4wMTUuMDM3LS4wMWMuMzUzLS4wODMuODA1LS4yIDEuMTI3LS4yNjJhMzUuMjY4IDM1LjI2OCAwIDAgMSA0LjA1LS4zMjYgMzkuMzkgMzkuMzkgMCAwIDAgNy41NjQtMS4yNDIgNS44MzUgNS44MzUgMCAwIDAgMS44MTQtMS44M2wxLjc2Ny0uNTE2YTU0LjYxMyA1NC42MTMgMCAwIDEgOC42MTMtMzguMDczbC0xLjM1My0xLjIwNmE0LjY4OCA0LjY4OCAwIDAgMC0uODQ4LTIuNDM2IDM5LjM2NiAzOS4zNjYgMCAwIDAtNi4yNzctNC40MSAzNS4yNTEgMzUuMjUxIDAgMCAxLTMuNDk5LTIuMDQ2Yy0uMjU2LS4xOTEtLjU5Ni0uNDc4LS44NzQtLjcwNGwtLjA2My0uMDQ0YTQuNDczIDQuNDczIDAgMCAxLTEuMDM4LTYuMjIyIDQuMDY2IDQuMDY2IDAgMCAxIDMuMzYzLTEuNDg4IDUuMDMgNS4wMyAwIDAgMSAyLjk0MiAxLjExYy4yODcuMjI1LjY4LjUyNi45MzUuNzQ1YTM1LjI1MyAzNS4yNTMgMCAwIDEgMi43OCAyLjk1IDM5LjM4NCAzOS4zODQgMCAwIDAgNS42OSA1LjE0MiAzLjMzMyAzLjMzMyAwIDAgMCAyLjUwNy4yNDNxLjc1NC41NSAxLjUyMiAxLjA4MmE1NC4yODkgNTQuMjg5IDAgMCAxIDI3LjU3Ny0xNS43NTQgNTUuMDUyIDU1LjA1MiAwIDAgMSA3LjYzLTEuMTczbC4xLTEuNzg0YTQuNjAxIDQuNjAxIDAgMCAwIDEuMzctMi4xODQgMzkuNDc2IDM5LjQ3NiAwIDAgMC0uNDctNy42NTQgMzUuNDY4IDM1LjQ2OCAwIDAgMS0uNTc2LTQuMDE0Yy0uMDExLS4zMDcuMDA2LS43MzEuMDEtMS4wODEgMC0uMDQtLjAxLS4wNzktLjAxLS4xMThhNC4yNDIgNC4yNDIgMCAxIDEgOC40NDEtLjAwNGMwIC4zNy4wMjIuODYxLjAwOSAxLjJhMzUuMTExIDM1LjExMSAwIDAgMS0uNTc5IDQuMDEzIDM5LjUzMyAzOS41MzMgMCAwIDAtLjQ3OCA3LjY1NiAzLjM0NCAzLjM0NCAwIDAgMCAxLjM3OSAyLjExYy4wMTUuMzA1LjA2NSAxLjMyMy4xMDIgMS44ODRBNTUuMzA5IDU1LjMwOSAwIDAgMSAyMjEuMTUgNzEuMjVsMS42MDYtMS4xNDdhNC42OSA0LjY5IDAgMCAwIDIuNTYtLjI3OCAzOS41MyAzOS41MyAwIDAgMCA1LjY5LTUuMTQ4IDM1LjAwNCAzNS4wMDQgMCAwIDEgMi43ODctMi45NWMuMjU5LS4yMjIuNjUtLjUyLjkzNi0uNzQ2YTQuMjQyIDQuMjQyIDAgMSAxIDUuMjU4IDYuNTk4Yy0uMjgzLjIyOS0uNjU3LjU0OC0uOTI5Ljc1YTM1LjA5NiAzNS4wOTYgMCAwIDEtMy41MDcgMi4wNDYgMzkuNDk1IDM5LjQ5NSAwIDAgMC02LjI3NyA0LjQxIDMuMzM3IDMuMzM3IDAgMCAwLS43OTIgMi4zOWMtLjIzNS4yMTYtMS4wNi45NDctMS40OTcgMS4zNDNhNTQuODM3IDU0LjgzNyAwIDAgMSA4Ljc5MiAzNy45ODNsMS43MDQuNDk2YTQuNzQ1IDQuNzQ1IDAgMCAwIDEuODIgMS44MzEgMzkuNDY0IDM5LjQ2NCAwIDAgMCA3LjU2OCAxLjI0NSAzNS42NCAzNS42NCAwIDAgMSA0LjA0Ni4zMjRjLjM1NS4wNjUuODY4LjIwNyAxLjIzLjI5YTQuMjM2IDQuMjM2IDAgMSAxLTEuODc4IDguMjIzbC0uMDYxLS4wMDhjLS4wMjgtLjAwNy0uMDU0LS4wMjItLjA4My0uMDI5LS4zNDgtLjA3Ni0uNzg1LS4xNTItMS4wOS0uMjMyYTM1LjE0IDM1LjE0IDAgMCAxLTMuNzg1LTEuNDYyIDM5LjQ3NyAzOS40NzcgMCAwIDAtNy4zNjMtMi4xNjUgMy4zMzcgMy4zMzcgMCAwIDAtMi4zNjIuODc3cS0uOS0uMTcxLTEuODA0LS4zMTZhNTQuOTIgNTQuOTIgMCAwIDEtMjQuMzI4IDMwLjYwNXoiIGNsYXNzPSJjbHMtMiIvPjxwYXRoIGQ9Ik0yOTEuNzM3IDEyOC42ODlMMjcyLjczIDQ2LjEyOGExNC44MzggMTQuODM4IDAgMCAwLTcuOTU4LTkuOUwxODcuODM3LS41MDJhMTQuODI1IDE0LjgyNSAwIDAgMC0xMi43NzEgMEw5OC4xMzggMzYuMjVhMTQuODM4IDE0LjgzOCAwIDAgMC03Ljk2MSA5Ljg5NUw3MS4yMDMgMTI4LjcxYTE0LjY2OCAxNC42NjggMCAwIDAgMS45OTUgMTEuMTg1Yy4yNjEuNC41MzguNzg4LjgzOCAxLjE2Mmw1My4yNDYgNjYuMjA1YTE0Ljk4IDE0Ljk4IDAgMCAwIDExLjQ5OSA1LjQ4N2w4NS4zODctLjAyYTE0Ljk4NiAxNC45ODYgMCAwIDAgMTEuNS01LjQ4bDUzLjIyNy02Ni4yMTFhMTQuNzIgMTQuNzIgMCAwIDAgMi44NDItMTIuMzQ3em0tOS4xOTcgMy44NjZhMTMuNjc3IDEzLjY3NyAwIDAgMS0uNDk4IDEuNzIzIDEzLjE4NCAxMy4xODQgMCAwIDEtMi4xMSAzLjc4NWwtNDcuMjk5IDU4LjgzOC0xLjQ4NiAxLjg1MmExMy4zMDUgMTMuMzA1IDAgMCAxLTMuMjQgMi44NjUgMTMuOTQzIDEzLjk0MyAwIDAgMS0xLjQ3NC44MjJxLS41MTMuMjM3LTEuMDQ1LjQzMWExMy44NjUgMTMuODY1IDAgMCAxLTEuMzgzLjQ0NCAxMy40NzIgMTMuNDcyIDAgMCAxLTEuOTg5LjM3OSAxMi45ODggMTIuOTg4IDAgMCAxLTEuNDEuMDgybC03Ny41MDQuMDE4aC0uNzZhMTMuMjk4IDEzLjI5OCAwIDAgMS0zLjQyOS0uNDcyIDEzLjkyNCAxMy45MjQgMCAwIDEtMy44NTUtMS42NzggMTMuNDIzIDEzLjQyMyAwIDAgMS0yLjU3Ni0yLjEzMmMtLjIzMy0uMjQ2LS40NjgtLjQ4Ny0uNjgtLjc1bC00OC44MDUtNjAuNjc5cS0uNDA4LS41MTQtLjc2NS0xLjA2NmExMy4xMDIgMTMuMTAyIDAgMCAxLTEuMzQzLTIuNzI2IDEzLjUwNiAxMy41MDYgMCAwIDEtLjQ5MS0xLjcxOSAxMy4zMTUgMTMuMzE1IDAgMCAxIC4wMDQtNS44MDlsMTcuMzk0LTc1LjY3NWExMy41OTggMTMuNTk4IDAgMCAxIDcuMjk1LTkuMDdsNzAuNTA4LTMzLjY4NmExMy41OSAxMy41OSAwIDAgMSAxMS43MDUgMGw3MC41MTkgMzMuNjdhMTMuNjAyIDEzLjYwMiAwIDAgMSA3LjI5MyA5LjA3M2wxNy40MjIgNzUuNjc1YTEzLjI4MiAxMy4yODIgMCAwIDEgLjAwMiA1LjgwN3oiIGNsYXNzPSJjbHMtMSIvPjxwYXRoIGQ9Ik0yNTIuMTQ0IDEyMC42ODdjLS4zNi0uMDgzLS44NzQtLjIyNS0xLjIyNy0uMjlhMzUuNjM1IDM1LjYzNSAwIDAgMC00LjA0Ni0uMzI2IDM5LjQ2NCAzOS40NjQgMCAwIDEtNy41Ny0xLjI0MiA0Ljc0NSA0Ljc0NSAwIDAgMS0xLjgyLTEuODMybC0xLjcwNC0uNDk2YTU0LjgzNyA1NC44MzcgMCAwIDAtOC43OS0zNy45ODNjLjQzNi0uMzk2IDEuMjYyLTEuMTI3IDEuNDk1LTEuMzQyYTMuMzM4IDMuMzM4IDAgMCAxIC43OTItMi4zOSAzOS40OTUgMzkuNDk1IDAgMCAxIDYuMjc3LTQuNDEgMzUuMDk3IDM1LjA5NyAwIDAgMCAzLjUwNy0yLjA0NmMuMjcyLS4yMDIuNjQ0LS41MjIuOTI5LS43NWE0LjI0MiA0LjI0MiAwIDEgMC01LjI1Ni02LjZjLS4yODguMjI3LS42OC41MjUtLjkzNi43NDdhMzUuMDA3IDM1LjAwNyAwIDAgMC0yLjc4OSAyLjk1IDM5LjUzMiAzOS41MzIgMCAwIDEtNS42OSA1LjE0OCA0LjY5IDQuNjkgMCAwIDEtMi41Ni4yNzhsLTEuNjA2IDEuMTQ3YTU1LjMwOSA1NS4zMDkgMCAwIDAtMzUuMDMyLTE2LjkyN2MtLjAzOS0uNTYxLS4wODctMS41NzctLjEwMi0xLjg4NGEzLjM0NCAzLjM0NCAwIDAgMS0xLjM3Ny0yLjExIDM5LjUzNCAzOS41MzQgMCAwIDEgLjQ3OC03LjY1NiAzNS4xMTEgMzUuMTExIDAgMCAwIC41NzUtNC4wMTJjLjAxMy0uMzQtLjAwNy0uODM0LS4wMDctMS4yMDFhNC4yNDIgNC4yNDIgMCAxIDAtOC40NDEuMDA0YzAgLjA0LjAwOS4wNzguMDEuMTE4LS4wMDQuMzUtLjAyMS43NzQtLjAxIDEuMDhhMzUuNDc1IDM1LjQ3NSAwIDAgMCAuNTc2IDQuMDE1IDM5LjQ3NSAzOS40NzUgMCAwIDEgLjQ3IDcuNjU0IDQuNjAxIDQuNjAxIDAgMCAxLTEuMzcgMi4xODJsLS4xIDEuNzg2YTU1LjA1NSA1NS4wNTUgMCAwIDAtNy42MyAxLjE3MyA1NC4yODkgNTQuMjg5IDAgMCAwLTI3LjU3NCAxNS43NTRxLS43Ny0uNTMxLTEuNTI2LTEuMDgyYTMuMzMzIDMuMzMzIDAgMCAxLTIuNTA2LS4yNDMgMzkuMzgzIDM5LjM4MyAwIDAgMS01LjY5LTUuMTQxIDM1LjI1NSAzNS4yNTUgMCAwIDAtMi43NzctMi45NWMtLjI1Ny0uMjItLjY1LS41Mi0uOTM4LS43NDlhNS4wMyA1LjAzIDAgMCAwLTIuOTQyLTEuMTEgNC4wNjYgNC4wNjYgMCAwIDAtMy4zNjMgMS40ODkgNC40NzMgNC40NzMgMCAwIDAgMS4wMzggNi4yMjJsLjA2NS4wNDZjLjI3Ni4yMjYuNjE2LjUxNS44NzIuNzAyYTM1LjI1NyAzNS4yNTcgMCAwIDAgMy40OTkgMi4wNDggMzkuMzY3IDM5LjM2NyAwIDAgMSA2LjI3NiA0LjQxMiA0LjY5IDQuNjkgMCAwIDEgLjg0OSAyLjQzNGwxLjM1MSAxLjIwOGE1NC42MTMgNTQuNjEzIDAgMCAwLTguNjExIDM4LjA3M2wtMS43NjcuNTE0YTUuODM1IDUuODM1IDAgMCAxLTEuODE0IDEuODI3IDM5LjM5IDM5LjM5IDAgMCAxLTcuNTY1IDEuMjQ3IDM1LjI2NCAzNS4yNjQgMCAwIDAtNC4wNDkuMzI2Yy0uMzI0LjA2LS43NzQuMTc0LTEuMTI3LjI2MmwtLjAzNy4wMDgtLjA2LjAxOGE0LjIzNiA0LjIzNiAwIDEgMCAxLjg3NSA4LjIyNGwuMDYzLS4wMWMuMDI4LS4wMDYuMDUyLS4wMi4wOC0uMDI1LjM0OC0uMDc5Ljc4Ni0uMTYzIDEuMDkyLS4yNDZhMzUuNTg1IDM1LjU4NSAwIDAgMCAzLjc4Ni0xLjQ1MSAzOS41MjcgMzkuNTI3IDAgMCAxIDcuMzU4LTIuMTY1IDQuNjggNC42OCAwIDAgMSAyLjQyNi44NTdsMS44NC0uMzE1YTU0LjkyMiA1NC45MjIgMCAwIDAgMjQuMzQgMzAuMzg3bC0uNzY5IDEuODRhNC4xODggNC4xODggMCAwIDEgLjM3NyAyLjM4NyA0MS4yMjcgNDEuMjI3IDAgMCAxLTMuODIgNi44NjQgMzUuMTgzIDM1LjE4MyAwIDAgMC0yLjI2MyAzLjM3MmMtLjE2OC4zMTgtLjM4MS44MDUtLjU0MiAxLjEzOGE0LjIzOCA0LjIzOCAwIDEgMCA3LjYyMSAzLjYxNmwuMDA3LS4wMDh2LS4wMWMuMTYtLjMzLjM4Ny0uNzYzLjUyMi0xLjA3MmEzNC45IDM0LjkgMCAwIDAgMS4yMTgtMy44NjggMjkuNTE3IDI5LjUxNyAwIDAgMSAzLjI2OC03LjU4MiAzLjQzIDMuNDMgMCAwIDEgMS44MTktLjg4OGwuOTU3LTEuNzNhNTQuNjE3IDU0LjYxNyAwIDAgMCAzOC45NDYuMDk5Yy4yNjguNDc4Ljc2OCAxLjM5Mi45IDEuNjIzYTMuMzM1IDMuMzM1IDAgMCAxIDIuMTU1IDEuMzEgMzkuMzA2IDM5LjMwNiAwIDAgMSAyLjg5OCA3LjA5NiAzNS4yNzQgMzUuMjc0IDAgMCAwIDEuMjI1IDMuODY4Yy4xMzcuMzEyLjM2Ljc1MS41MjIgMS4wODJhNC4yNCA0LjI0IDAgMSAwIDcuNjMtMy42MDdjLS4xNjEtLjMzMy0uMzgzLS44Mi0uNTUtMS4xMzZhMzUuMDYyIDM1LjA2MiAwIDAgMC0yLjI2My0zLjM2NCAzOS4zNzMgMzkuMzczIDAgMCAxLTMuNzQyLTYuNyAzLjMxNCAzLjMxNCAwIDAgMSAuMzI0LTIuNDkgMTQuNTE1IDE0LjUxNSAwIDAgMS0uNzAzLTEuNzAzIDU0LjkyIDU0LjkyIDAgMCAwIDI0LjMyOC0zMC42MDVjLjU0Ni4wODcgMS40OTcuMjUzIDEuODA2LjMxNmEzLjMzNyAzLjMzNyAwIDAgMSAyLjM2LS44NzcgMzkuNDc3IDM5LjQ3NyAwIDAgMSA3LjM2IDIuMTY1IDM1LjEzNSAzNS4xMzUgMCAwIDAgMy43ODggMS40NjJjLjMwNS4wOC43NC4xNTYgMS4wOS4yMzMuMDI5LjAwOC4wNTUuMDIxLjA4My4wMjhsLjA2LjAwOWE0LjIzNiA0LjIzNiAwIDEgMCAxLjg3OC04LjIyNHptLTQwLjEtNDIuOTg3bC0xOC4wMzcgMTIuNzg3LS4wNjMtLjAyOWEzLjcyMyAzLjcyMyAwIDAgMS01LjkxMy0yLjgzOWwtLjAyLS4wMDktMS4yNTMtMjIuMTA0QTQzLjg1IDQzLjg1IDAgMCAxIDIxMi4wNDMgNzcuN3ptLTMzLjk3OCAyNC4yMjhoNi43ODhsNC4yMiA1LjI3Ni0xLjUxMyA2LjU4MS02LjA5NiAyLjkzMy02LjExNC0yLjk0LTEuNTE2LTYuNTgzek0xNzEuNjggNjYuMjhhNDQuNjc2IDQ0LjY3NiAwIDAgMSA0LjUwMy0uNzc0bC0xLjI1NSAyMi4xMzctLjA5Mi4wNDRhMy43MiAzLjcyIDAgMCAxLTUuOTA0IDIuODUybC0uMDM1LjAyLTE4LjE1NC0xMi44NzJBNDMuNDY3IDQzLjQ2NyAwIDAgMSAxNzEuNjggNjYuMjh6bS0yNy41MiAxOS42ODFsMTYuNTc0IDE0LjgyMy0uMDE4LjA5MWEzLjcyIDMuNzIgMCAwIDEtMS40NjIgNi4zOTRsLS4wMTcuMDcyLTIxLjI0NSA2LjEzMWE0My40NTQgNDMuNDU0IDAgMCAxIDYuMTY4LTI3LjUxem0yMi4xOTEgMzkuMzhsLTguNDQxIDIwLjM5NmE0My42OTYgNDMuNjk2IDAgMCAxLTE3LjUzNi0yMS45NDhsMjEuNzgzLTMuNjk5LjAzNy4wNDhhMy42NTUgMy42NTUgMCAwIDEgLjczLS4wNjUgMy43MiAzLjcyIDAgMCAxIDMuMzY0IDUuMTg1em0yNC45MTYgMjYuMjNhNDMuNjM3IDQzLjYzNyAwIDAgMS0yMy44MTUtMS4yMjRsMTAuNzEzLTE5LjM3MmguMDE4YTMuNzI1IDMuNzI1IDAgMCAxIDYuNTU3LS4wMDZoLjA4bDEwLjc0IDE5LjQwNHEtMi4wOTEuNjk4LTQuMjkzIDEuMTk5em0xMy44NDEtNS43NTJsLTguNTI4LTIwLjYwNS4wMjYtLjAzN2EzLjcyNSAzLjcyNSAwIDAgMSAxLjgwMy00LjgyMyAzLjY4NSAzLjY4NSAwIDAgMSAxLjQyNS0uMzcgMy41OSAzLjU5IDAgMCAxIC44NTUuMDYzbC4wMzctLjA0NiAyMS45NzcgMy43MTRhNDMuNTMgNDMuNTMgMCAwIDEtMTcuNTk1IDIyLjEwNXptMTkuOTAzLTMyLjQxOWwtMjEuMzUyLTYuMTUtLjAyLS4wOWEzLjcyNSAzLjcyNSAwIDAgMS0xLjQ2LTYuMzk2bC0uMDA4LS4wNDMgMTYuNDgyLTE0Ljc1MWE0NC4yNzkgNDQuMjc5IDAgMCAxIDYuMzU3IDI3LjQzeiIgY2xhc3M9ImNscy0xIi8+PC9zdmc+" parent="1" vertex="1">
                    <mxGeometry x="130" y="170" width="76" height="60" as="geometry"/>
                </mxCell>
                <mxCell id="7" value="" style="fillColor=none;dashed=1;verticalAlign=top;fontStyle=0;fontColor=#5A6C86;strokeColor=#0000FF;" parent="1" vertex="1">
                    <mxGeometry x="115.63" y="340" width="200" height="120" as="geometry"/>
                </mxCell>
                <mxCell id="8" style="edgeStyle=orthogonalEdgeStyle;rounded=0;orthogonalLoop=1;jettySize=auto;html=1;startArrow=classic;startFill=1;" parent="1" source="14" edge="1">
                    <mxGeometry relative="1" as="geometry">
                        <mxPoint x="164.46500000000015" y="404.1799999999999" as="sourcePoint"/>
                        <mxPoint x="240" y="400.06" as="targetPoint"/>
                    </mxGeometry>
                </mxCell>
                <mxCell id="9" value="" style="shape=image;verticalLabelPosition=bottom;verticalAlign=top;imageAspect=0;aspect=fixed;image=data:image/png,iVBORw0KGgoAAAANSUhEUgAAAIAAAACACAYAAADDPmHLAAAAAXNSR0IArs4c6QAAGrVJREFUeF7tnXlgVNW9xz/nzmRmsi8kCEJYZYmAEEUgrPqKfdqqtSiKqHWry1N5rhWeC9a6tvpsta8+bS1uVay1vvpK7VMBEURkJyQhsiRsYkIIScg2+5z3x53lzpZMwsxkJuTzV+655wzMnO89y/ee8ztwiiGlnCWl/KOUslJK2SalrJVSlkopfyGlHNtZ+T6SFCnlXCnlBtkxLinl36WU53b2eX0kCVKt+I0d13tIPpNSTu3s85Md0VmGZERKKYDLgEeB4sD7rRZZXrbfdnxvjV1kpwqGnqbnrGHGMxSF04M+DP4J/EII8XWIe0lPrxKAlFIB5qFW/FkBt51VNY6vH3u78bTKw/YzAssKgTx/YuqOh67KFrkZyqTA+8CnwBNCiC9D3EtaeoUA3BX/Q+Bxgp9417fHHBvv/0PDgH01juHBpYOZXmQqe3hhtmVAji7UWGA98EshxN9D3Es6kloA7oq/HLXiiwJu26tqHJseer1h0L4ax7CgwhEwdYyxfOm1OeYBObrJBP9WvUIISSkATcU/AYwJuG2vqnFsWrysYfD+WsfQ4NJdZ/www56nfpJzfHCBfhrBv9lXwLPJKoSkEoCUMgW4GngYGB1w21ZV49j84GsNhQfqHEOCS58844cZ9jx+bU7TsNP05xL82+0AngY+EELI4NKJSVIIQFPxjwKBAzhbxQH7xsXLGs+oaXQMDC4dfYoK9fsevy7v6MiB+mmALuB2KfAUSSKEhBaAlNIALACWAiMDblsrDtg3Pfh6w6jaBueA4NKxp6gwZd/j1+WGE0IZ8DzwJyGEK7h0YpCQAnBX/A2oT/zggNttW/Zatz76VtPYuiZn/6DCPcCQ/rrDT16Xd2DcsJQSQB9wuxx4DnhHCOEMLt2zJJQApJRG4HrUJ36Q/z3atu6zbn3kraaxxxKk4gPpRAi7gF+SYEJICAFIKdOBnwIPgr8b56n4h99oLKpvdhWE/IAEozBf/+0jC7OrJ48yTgWMAberUYWwTAjhCC4dX3pUAFLKDOBmYAng149LSev6CsvWpX9qOutEmys35AckOIPz9UceXZhdNXmUcQpgCri9H3iWHhZCjwhAU/H/AZzmf4+W9RWWbUvfPjHxRLszJ+QHJBmD8vXfLV2YvW/yKOO5QGrA7QPAb4BXhBDWoMIxJq4CkFJmAnegNvV5fvegYeV2c9nT7zVPam53Zof8gCSnIFupf2RBTsXM8aYpBAvhEPAC8KoQwhJcOjbERQBSyizg34DFgF9z7pKyYdUOS9mTy08Ut5pdWSE/oJfRL0upX3p1TsXM8aZzgbSA24eB/wR+L4QwB5eOLjEVgJSyH7AIuBvwa85dkuOrdpjLn3i36ew2i8wM+QG9nLwspeHBK7LL5k5KPVsIAn+DOtQW4aVYCiEmApBS5gN3AfcAfs25S1K/YmNbxS//0nyuxSYD1X9KkpspGhbPzymbOym1WAgCW0GPEH4rhGgPUfykiKoApJQFwJ3AveD/RVySYys2tu169v3mKVa7DOz/+gByMpTGJVdm75w7KXWSEASOg+qB3wEvCCGaQxTvFlERgJSyP3AfanPv91Q7XfK7D9a17fvN/7ZMsdlk4FSojxCkG0XrA1dkbb1kWvpEEdB14hPCr4UQJ0IU7xInJQAp5enAQ6hTOr/Kdbo4/Paq1r2vftwyw+aQgWZIHxGQmSra7r88u+yHU1LHKkIECuE46vTx10KIthDFI6LbApBS3obqaPk1VU4XB5d90nLgtU/apjucrpTQpfvoChkm0XbfvOzSS6aljVWE//QZ1Ue4VQjxWYiindItAUgpn0R9J+/F5pQH/vB/rUfe/LRlqtMV5IP3EQXSDKL9/ityNl86LXWcIsjX3HIAVwshPghXNhxdFoCU8nrgDU2SZcUm88Yn3m2a4XDKvoqPAxmpSvPv7szdOX6ocQa+OrQDU4QQOzooGkSXBCClzAN2g1d95gdea/zm81Jz0NLrPmLPA1dkrb16TsZsTdLXwPSuLERROssQwDX4Kp8X/9a8va/ye47nP2ievWWv9QtN0jSgS5tZuiqAKzx/NLbKrW+tap3eUeY+Ys99rzZMdrmo1SRdGTZzCCIWgJTShKowAF766ETCLGo4lWmzyvS1FZbdmqTzwuUNRcQCAM4BDKAu0vhki3liJ/n7iBNvfNqqXQw7wb3AJiK6IoASzx8NLa491j5zJ2EoP2gbJSVN7ks9EPHu5m4JoOyg7aQtyD6ih5SIhhZZpUkqIUK6IgDv6HJ1qTXiJqaP+LCtytKquYyuAKSUQ/Gt0pVf7WoPXKPfRw/zeak1Q3NZ4t4i3ymROndeRdmc8kBji4xol22ikpepMHOciVnjTbRZXKwrt7Ch0kq7NWL/JOH4qtI8GnJcqA91PupGmn0dl+qGAA7UOo4ASSeAQfk6Zo9XK33yKCM6Tdt3ydQ0nC4oP2BjbbmFz0stHKzrsYW63aKlXWZa7bLKmCI8rfN0YiGA9RWWpHhMDCmC4hEGpowxcv5EE0P7d/xVdQpMHGFg4ggDiy7N4ki9k3UVFtaWWdiy14ozYTd3+aiucdQUDUnxCKAEeKuj/BCBAKSUqYB3zr+61Noj+/AiISdDYeaZJmaNN1JSZCLdFFE3GJJB+ToWzElnwZx0TrS52LzHyrpyK2vKLLSaE1MNX1ZYKBrifQMf0UCw019ISjkTWKf+TeuUe75LdbmCNkL2GCMH6pk13sTs8SYmDDegdPqNTg6XC8rcXcWanRYOHE2crmLMYH31u4v7j3BfOoG8zpaPddoCoDWA2lx7XC7O7ihzrPE07bMnmDjvLBMDcuOrRaWDrmLrPhsOZ8/1kHuOOIZLaBTq0nsdMBlY3VGZLglgZ5UtaosRu0JuhsKMKDXt0SZcV/FFmYWWOHcVUiKOn3BW5WfrJruTSoiCADQGULt2rhlThvbX8/1zUpk1zsSZQ1IQiVPnYclOV5hbnMrc4lTsTsm2fTbWlVv4ZKuZhpb4iGF7tb31gmJvq9jpOKBDI0hKOQzfbl25fpctbgbQ4XoHm/dY2bzHyv4E6mcj5fAxJ5WH7FQettPYGp/KB1i1w6Jdjj+tM0Oow5tSyquBdwFsTqpL7vnOM8CIO9p5/DlnGNDrEqtJsNolO6rVJ371DgtHm3rmbXm6UbSufX5gKr6IJWOEEHvC5e+sC/A2Iftr7d8BcRNAmlH4OXNH6p0sX9PG8jVtZKUpTBljdAvCSFZaRI521GlocbGh0sracgtf7bKEdRIDv0ssabPKDKtN7jMahCeWUglw8gL4sjy+BtBvbu9HbobCyu1m1pZZ+OZbO9L9P2hud7Fyu5mV280oCowZlMLsCWrrUFQY25Xo1bUO1pZZWFdhobTa5v0/aVEEjBms/p/mFqfydaWV//wwfi9Qq2odNWcOSdEK4M1wecMKwG0AecOtfl5qjksELi0jBui59aJMbr0ok5oGJxsqrV7f3u6ebrlcUHlY7Wtf/biFQfk6prpbh2lFRlJOsqvQNu2rdlioC9O0G1MEU8cYVU9igpH8LN/09OvK+G77X1tuUc6M0BDqqAWYjG8FUMvuI5GFWY0VA/N0zJuRxrwZaTS3u9i0O7Qzd6TeyYf17Xy4vp1Ug+Dc0WqlnHeWibzMyLqKSJt2rfM4/UwTacaTE1u0+LzUcvrtP/BuNh4vpcwKZwh1JADtCqC9PW0AaclK8023PM7cZ9vNrC61cLTR94SabZK15RbWllt45v2Ou4pImnbwDUYvKE6Ni/PYHapq7MNcUjYoQuShzvSmACtD5Y1IADuqe8YAigStM/fA5dlhKzKwqygs0DNznJF2i2RdhSXsPF07xrigOJXhAzobNvU8UiKON7uqCrJ1nm1kJXRDAN4VwJ/vtMTNADpZRgzQM2JABjdckEFto5OvdgWPGwAOH3OwfE1of0Hbn8+ZYKJfVmRdRyKxda+97cLJnRtCIQUgpRyOL2qX/GqXJW4GUDQZkOsbN5htki17rKzcbglp02rt5hnjTKQaErBt7wKrSs3ZF072btgukVIqoSKWhmsBvIqx2uX+E22uuM3/Y0WqQTDLbSTZnZLbXjxO6X4bAPNmpPHQVTlJYTdHysZKyyjUN4I61BgDo4FvAvOFa9u8AqiudXwXJk/SkqITGDVPeIZJ6VWVD25DyE6nK4U7FcD6XfE1gOKFdpTfK78gsOeI/ajmMjIBBBpAa0otcTeA4oGfAHqpAr6ssGjrNzIBoO4qSQGQkubd39qTvv8PRS+tcz8+32HWRlo/U0oZFIAzlAD8DSAZ2d6BpEPz2PfWFqD6qGOIS3LcfekxhPzoUADbq20tIe73kSRIiag74ajWJAV1A6EE4FsBtMPcayN4ah962Ys7hO177doIYh0LQEo5Ao0B9HVl/FYAxZtTYRAIsGqHWRtebppUT1zzEtgCaA2g6t4Srj0Ufi1ALxbAxt22UahRxEA1hPyO2QsrgOpaZ68zgLT05krX0m51pVtsflvH/cL6hBXA+oq4hazvGU6RLgBg7xFHWEPIKwApZRoaA2hVaXuok7R7Df6DwN7NF+Vm7e6Z0AJANYD0AFJyYl8PrwCKNafKIBBgzU6L1hAqklJ6D+0IaRUeb3b2XgPoFGR/rWOoS3LMfSnQGEIhBbB9n00bbqRXcip1AQB1jY79mktvXWsF4DWAVu209FoDyIM8xRSwZa9de9qIvwCklCPxHd/m2vhN7zWAfGjfBfR+BazeYdYe1uU1hDwtgMYAoqq5FxtAHk6F9QBaNu6xag2hLKAIQgigqsaujTvbazmVZgEAFptMM1ulNmZQCYQQwLryXm4AuTnFhgAA7D5iq9NcqgJwx5Wd4En9vMySEAbQU8ub+DLJ3Ugp4R+bzLyxMjHeqq8rswUZQgoBBlDVEXtCGEAH6xzc/UoDd/zXcapqoh8fINazgPIDNm58oZ6lbzdyvDl+8QE6YvXO9iGay7FSyjw9mua/XjWAPOFFEoKNu60s/OUxLp2Wyp0XZ5GTEX1/KppjgKONTl5e0cI/NrdH9XOjwaE6Z6FLUqcI+uM2hPRodgDt/taekAaQwyn5cH07K7dbuO0Hmcyfle4X6LE7RHsWYLZJ3l7VyuuftWKzR+MTY0Nji+twvyylv/uyRA+c6blZXes8yZ81tjS3u3jugxO8v7aN++ZlMXNc98+hjNZ6ACnh481mXvzoRMI09R1Rd8Jp1mx1G6sHvC8KFCUqD0PM8YwPpo4xcv/l2Ywc2PUNm9FoAcoP2Hj+r82UHbB1ljVhUITf1z1dD1hwn/pZmK/r7m/RI5zM+ECehAISuZ/vjPwcnTbUv0UPHMJ9Pu3ZI439QpZKYKIxPoh0UWiy9PPhMBlEe166ol0SdkgBVnmuMtPEuKLClE4jTCcinvHB/Kfqor6ayTOfv+zxOl79uCUpKx9gwZz07UKgbQE+U1BPAfV8I+W5m3M9GwmSkoN1Dv49Av8gUiu4/ICNm36tzufrm3sm9Fs0SDMqbXdcnKn1eJqAvytCiJ3Anz2pA/vpp97+w8x1QZ+QZHjGB0+910RTiECNnc0CjjY5eeztJm54oZ6d+5NnkBeOl+/K3aZThNblfUQI0ebpLRcBhz13brkw89ziMwy7SHI844MfP1HHe1+0+cX8DzcGNNskv/9nC5f9oo4Vm5JvkBeKm/81Y8OEYcZZmqQvgFfA/TJICFGPeiqo1Z3B9Oqifjm5maKBXoBnfHDl077xQaAVLCWs3G7miieTu58PZPwww547Ls7SnvFYCywUQjghIFSslPLfgJc918ebXdsufLR2YiKdDxANZo83seuQ3duneyKGVR62d1Qs6chO0zV98nT/5hSd8LwDsAPfE0J4u/iguBhSymXAjZ7rldvNaxYvazwvMF8fiY0QyL///LRNA/N02sOk/10I8VttvlAz5juAbZ6LucWpc348I31jiHx9JDDP3Jj3RUDlvxdY+RBCAEIIC3A5ePeVi4evyh4zrL/+UGDePhKTucWp2y4oNmkHfd8At4bKG9IzE0IcAG4AXOo1Oe8uLrCYDEK7srSPBGRQP913z9yYMwxfuPgWYJ4QIuSqlLCmqRBiBfC059poEKPfeqBge7j8ffQ8Rr2wLl/S/4Q7RCyoM9ybhBCV4cp05po/Bvyf52LkQP2MRZdkre0gfx89yB/vzd+UbhJFmqRfCSE+CFuATgTgjix5DbDfk3bD9zOmTh5tKA1fqo+e4MbvZ6wvGpKi7fc/Bx4Jl99DZy0AQogGYB5gdicZ//vO/IK8TCWp3xn0JsYPM+y565IsbTT3WuAaIUSniyk7FQCAEGIHcI/nWlE4/f2H+h9UFJL37UgvITtN1/TaPf1SgVR3kh2YL4So6aCYl4gEACCE+D2wzHOdm6Gc/fxP85L+pVF3Wf3sAFY8fho9iSJw/fmh/H0pOlGoSb5XCPFl2EIBRCwAN3cCWz0XcyaY5syflf51B/n7iCHP3JS3tsB3SCTAciHE78IWCEGXBKAxieo9SYvnZxcNH6DXxqLrIw7MPTt129xJfmZPGXBLuPzh6JIAAIQQB4GFqKHIEYLsd35W4OwzieLH4Hz9kWduCDJ7rhRCaGMCRkTXl9MCQojPpJRPovoEGA1i1NsPFHw1/+k6vwhUsWLM4BTeXVzAio3tvPJxC/f8OIspo42k6AU799v47UfNYd/szRhn4iffS6eo0IBeBweOOvhoQzt/+bINV4hV3ZeVpLHw/AwKC3Q0tLj4x6Z2/vDPnts+YTAIy/IlBc2KEIPcSRK4UQgRdBZAJHS5BdDwC+CfnosRA/XT774sviZRbobCG/fnU1RoYP0uK5WH7EwdY+SP9+YzfpghKP/V56Xz0u15TBphoPygjQ2VVgbn63lwfjZPX6/dPq9yy0WZPLowh9P76VhfYWXXITtXn5fBMzcG540Xy+7J35Jm9DN7nhVC/DVsgU7oVgsAqkkkpbwG2IL7RNGffC+jZNMe284NuyzeaGOxZMY4E2t2WliyrNF7HtDFU9J4/Locli7M4apn6rwLP4b213PPZVm0WSS3vlTPN+4WIi9T4Q9353PB2amsq7Dwj02q3TF8gJ5bL8ykocXFDS8c40i9OuM9PU/H6/fnk52u0G6N7yz4josz1xUVBpk9j4bLHwkn0wIghGjE3yRKeem23IK8TJ02Ll3McEl44cMTfodBrdjUzs79NkYO1DNxhK8V+FFJGnqd4L0vWr2VD+oZgS/+TT0U7cpZvgWzl05LQ1HgzZWt3soH+K7Byeufxr8LOGuYYffN/5qpHfF/C1zlWdnTXU5KAABCiFLgNs+1ooiB7z9UUKNT6NSFOlm+OWznyPHg7//ZdlWPE4f7BOD5+9NtwUvG11VYaLNIioYYMOiFX/5VOzza9uH5/HiRna40vnZvfhr+Zs8CIYQn8le3OWkBAAgh3gZe81znZiiTXrg1L2IzortoD4nUUtugphdk+1ay5WerX7WmIViXUkJtoxOdgnd3UX6WDpck5FGxDS0uv1YnligC15//o6BKp6A1e+4WQqwPW6gLREUAbu5CHQ8AMHOcac5VszM2dJD/pAlXBZ4DoLQLP0Xw6rek4Fc3B5k97woh/jtsgS4SNQEIIawEmEQ/uyJrwuhBsTOJBuSGXqt6mjv9eIvv6T12Qv17YF7wuFcI9bOcLrx7COqbnSgC+ucE/xt5mcpJH0odCRdPTdt8/kTTbE1St8yejoiaAACEEIeABfhMoow37i9wphpETEZNYwencHpecAXNLVa7ytJq34YOzxmBF5wdvKV8+pkm0k2CykM2bA612fBsBvmXiZ5u18cFxcFp0WZwvv7Iz6/NGYmvjjxmT1QNt6gKAEAIsQrVIwDAmCJGvbO4YGcHRbqNosC987LRa57GiyanMnG4gf21DnZoBPDRhnYcTsmC2emMHuQ7ODonQ+HuH2UB8Jd1vt/2f79ux+WCn8xNZ1A/n8gG5Oq4fm5sT9L1mD0CtCt7buiu2dMRMWnHpJQC+BC4zJO2fE3rF8//tXlO+FKR43EC11dYGFOYgtWmPuGn5eo45wwDNrvk9t/6Tgb1cPV56TxweTZ2p2TTbhtmm4spo41kpSl8ts3Mktcb/fLf/oNMbrkoE7NNsqHSipRQUmRk024rxSMNtFslFz8W/Rnvu0sKvhwzKGWmJukpIUSnizu6Q9RbAAAhhARuAt/JlVeflzF95pmGqLYEja0ubnqhnt1H7Mwab2TckBQ277Hy0xfrgyofYPmaNu5+pYGd1TaKRxqYPc5EbaOT5z44wUNv+lc+wCsft/Dk8iZqGpzMGm9k/NAU3l/bxpJlwXmjxd2XZa8NqPzVuC33WBCTFsCDlPIsYAOQBuCS1P1w6VHqmpyeGDXdQvsu4LE/NXWWPWmYPNpU8eqivDMAozvpMHBONOb74YhJC+BBqDuPvevRFUH/95YUHNEponftwYoC2elK48t35mXhq/yomT0dEVMBAAgh3gFe9VxnpyvFL92eFxUTo7egCFzvB5s9i4QQX4UtFCViLgA3iwDvl5lWZJyzYE5sTaJk4vlb+63N9zd73hFCvEociOkYQIuUshB1OVmBek3bNb86Vrv7W/spEJo+PJdOTdv82LU55+B7GHcCJdGe74cjXi0AQojD+JtE6W88kK+km0JvWToVKMzXf7vU3+xpQt3GFZfKhzgKAEAI4TelMejE8HcW9y+ly4Hakh+32dMaYPbcJITQnvEXc+IqADdPo5pEABTm62YuuTI7riuJEoE378vfkmoUYzVJTwoh/idsgRgRdwG4TaKbAW84uvmz0qefPzH1lNl4+rP52V+M9jd7PgV+HiZ7TIm7AACEEE2oMYk8fV3Kczfnjo62U5iILLokc92C2enaN3wHUbdx9Uig4bjNAkIhpbwOeEuTZF9Xbl3/8BsNk9usMrZvXOLMwFx9zct35e0f0l+vXTltBWYJITaHKxdrelQAAFLK/0LdcaSl/WCdY8eug3ZbVa09xWztmZaqu6TopBmBKzNVpx92mo5JI4xZ/bKUiRAUbOsWIcRr9CCJIAAdarTSazvJ2tt4WAjxND1Mjz9Z7lWtNwAPoUYu7+3UoXr8PV75kAAtgBYp5VDgeuBS1L0GPbcDI3pIoAbYDXyAuqYvYV5h/j/GWaFV0MUuoQAAAABJRU5ErkJggg==" parent="1" vertex="1">
                    <mxGeometry x="185.63" y="300.06" width="60" height="60" as="geometry"/>
                </mxCell>
                <mxCell id="10" style="rounded=0;orthogonalLoop=1;jettySize=auto;html=1;entryX=0;entryY=0.5;entryDx=0;entryDy=0;exitX=1;exitY=0.5;exitDx=0;exitDy=0;exitPerimeter=0;" parent="1" source="29" target="19" edge="1">
                    <mxGeometry relative="1" as="geometry"/>
                </mxCell>
                <mxCell id="11" style="rounded=0;orthogonalLoop=1;jettySize=auto;html=1;exitX=1;exitY=0.25;exitDx=0;exitDy=0;entryX=0;entryY=0.5;entryDx=0;entryDy=0;entryPerimeter=0;" parent="1" source="41" target="29" edge="1">
                    <mxGeometry relative="1" as="geometry">
                        <mxPoint x="290.97" y="385" as="sourcePoint"/>
                    </mxGeometry>
                </mxCell>
                <mxCell id="12" value="在庫引当-予約&lt;br&gt;with &lt;b&gt;&lt;font color=&quot;#990000&quot;&gt;リクエストID 123&lt;/font&gt;&lt;/b&gt;" style="edgeLabel;html=1;align=center;verticalAlign=middle;resizable=0;points=[];" parent="11" vertex="1" connectable="0">
                    <mxGeometry x="-0.1788" relative="1" as="geometry">
                        <mxPoint as="offset"/>
                    </mxGeometry>
                </mxCell>
                <mxCell id="14" value="注文サービス" style="outlineConnect=0;fontColor=#232F3E;gradientColor=none;fillColor=#D05C17;strokeColor=none;dashed=0;verticalLabelPosition=bottom;verticalAlign=top;align=center;html=1;fontSize=12;fontStyle=0;aspect=fixed;pointerEvents=1;shape=mxgraph.aws4.container_1;" parent="1" vertex="1">
                    <mxGeometry x="138.63" y="384.93" width="47" height="30.13" as="geometry"/>
                </mxCell>
                <mxCell id="15" value="在庫サービス" style="outlineConnect=0;fontColor=#232F3E;gradientColor=none;fillColor=#D05C17;strokeColor=none;dashed=0;verticalLabelPosition=bottom;verticalAlign=top;align=center;html=1;fontSize=12;fontStyle=0;aspect=fixed;pointerEvents=1;shape=mxgraph.aws4.container_1;" parent="1" vertex="1">
                    <mxGeometry x="717.38" y="381.27" width="47" height="30.13" as="geometry"/>
                </mxCell>
                <mxCell id="16" style="edgeStyle=none;rounded=0;orthogonalLoop=1;jettySize=auto;html=1;entryX=1;entryY=0.5;entryDx=0;entryDy=0;entryPerimeter=0;exitX=0;exitY=0.75;exitDx=0;exitDy=0;" parent="1" source="19" target="32" edge="1">
                    <mxGeometry relative="1" as="geometry"/>
                </mxCell>
                <mxCell id="17" value="在庫引当-予約応答" style="edgeLabel;html=1;align=center;verticalAlign=middle;resizable=0;points=[];" parent="16" vertex="1" connectable="0">
                    <mxGeometry x="-0.5724" y="4" relative="1" as="geometry">
                        <mxPoint x="-10" y="2" as="offset"/>
                    </mxGeometry>
                </mxCell>
                <mxCell id="18" style="edgeStyle=none;rounded=0;orthogonalLoop=1;jettySize=auto;html=1;startArrow=none;startFill=0;" parent="1" source="19" target="15" edge="1">
                    <mxGeometry relative="1" as="geometry"/>
                </mxCell>
                <mxCell id="19" value="" style="shape=image;verticalLabelPosition=bottom;verticalAlign=top;imageAspect=0;aspect=fixed;image=data:image/svg+xml,PHN2ZyB4bWxucz0iaHR0cDovL3d3dy53My5vcmcvMjAwMC9zdmciIHhtbG5zOnhsaW5rPSJodHRwOi8vd3d3LnczLm9yZy8xOTk5L3hsaW5rIiB3aWR0aD0iMzY3cHgiIGhlaWdodD0iMjcwcHgiIHZpZXdCb3g9IjAgMCAzNjcgMjcwIiB2ZXJzaW9uPSIxLjEiPiYjeGE7ICAgIDwhLS0gR2VuZXJhdG9yOiBTa2V0Y2ggNTEuMyAoNTc1NDQpIC0gaHR0cDovL3d3dy5ib2hlbWlhbmNvZGluZy5jb20vc2tldGNoIC0tPiYjeGE7ICAgIDx0aXRsZT5BcnRib2FyZDwvdGl0bGU+JiN4YTsgICAgPGRlc2M+Q3JlYXRlZCB3aXRoIFNrZXRjaC48L2Rlc2M+JiN4YTsgICAgPGRlZnMvPiYjeGE7ICAgIDxnIGlkPSJBcnRib2FyZCIgc3Ryb2tlPSJub25lIiBzdHJva2Utd2lkdGg9IjEiIGZpbGw9Im5vbmUiIGZpbGwtcnVsZT0iZXZlbm9kZCI+JiN4YTsgICAgICAgIDxwYXRoIGQ9Ik04OS43OTE3MTE5LDE5My41MDg3NjEgTDYyLjkwMDAzOTIsMTkzLjUwODc2MSBMNjIuOTAwMDM5MiwxODUuMDY0MTIgQzYwLjMzMTEwNjQsMTg4LjI4ODk1IDU3LjczNDg4MzUsMTkwLjYzOTIxNSA1NS4xMTEyOTI2LDE5Mi4xMTQ5ODUgQzUwLjUyMDAwODQsMTk0LjY4MzkxOCA0NS4zMDAyMzM5LDE5NS45NjgzNjUgMzkuNDUxODEyNCwxOTUuOTY4MzY1IEMyOS45OTU5NTM0LDE5NS45NjgzNjUgMjEuNTc4NzI1NCwxOTIuNzE2MjU0IDE0LjE5OTg3NTksMTg2LjIxMTkzNSBDNS4zOTk5MTQ2NCwxNzguNDUwNDc4IDEsMTY4LjE3NDkwMSAxLDE1NS4zODQ4OTUgQzEsMTQyLjM3NjI1NyA1LjUwOTIyOTI5LDEzMS45OTEzNjUgMTQuNTI3ODIzMSwxMjQuMjI5OTA5IEMyMS42ODgwNDAxLDExOC4wNTM1MzggMjkuOTEzOTY3NCwxMTQuOTY1NCAzOS4yMDU4NTIsMTE0Ljk2NTQgQzQ0LjYxNzAwODMsMTE0Ljk2NTQgNDkuNzAwMTM5NSwxMTYuMTEzMjAzIDU0LjQ1NTM5ODEsMTE4LjQwODg0NSBDNTcuMTg4MzA1MywxMTkuNzIwNjQxIDYwLjAwMzE1NzYsMTIxLjg3OTYwNSA2Mi45MDAwMzkyLDEyNC44ODU4MDMgTDYyLjkwMDAzOTIsNzAuMzY0NTc2NiBMODkuNzkxNzExOSw3MC4zNjQ1NzY2IEw4OS43OTE3MTE5LDE5My41MDg3NjEgWiBNNjMuNzE5OTA3MywxNTUuNDY2ODgyIEM2My43MTk5MDczLDE1MC42NTY5NjUgNjIuMDI1NTMwMiwxNDYuNTcxMzMgNTguNjM2NzI1MywxNDMuMjA5ODU1IEM1NS4yNDc5MjAzLDEzOS44NDgzNzkgNTEuMTQ4NjIxLDEzOC4xNjc2NjYgNDYuMzM4NzA0MiwxMzguMTY3NjY2IEM0MC45ODIyMDYxLDEzOC4xNjc2NjYgMzYuNTgyMjkxNCwxNDAuMTg5OTg3IDMzLjEzODgyODMsMTQ0LjIzNDY5IEMzMC4zNTEyNjI5LDE0Ny41MTQxNzggMjguOTU3NTAxMiwxNTEuMjU4MjA1IDI4Ljk1NzUwMTIsMTU1LjQ2Njg4MiBDMjguOTU3NTAxMiwxNTkuNjc1NTU5IDMwLjM1MTI2MjksMTYzLjQxOTU4NiAzMy4xMzg4MjgzLDE2Ni42OTkwNzUgQzM2LjUyNzYzMzMsMTcwLjc0Mzc3NyA0MC45Mjc1NDc5LDE3Mi43NjYwOTggNDYuMzM4NzA0MiwxNzIuNzY2MDk4IEM1MS4yMDMyNzkxLDE3Mi43NjYwOTggNTUuMzE2MjQyOCwxNzEuMDk5MDUgNTguNjc3NzE4NywxNjcuNzY0OTAzIEM2Mi4wMzkxOTQ2LDE2NC40MzA3NTYgNjMuNzE5OTA3MywxNjAuMzMxNDU3IDYzLjcxOTkwNzMsMTU1LjQ2Njg4MiBaIE0xOTAuNjUwMDYsMTkzLjUwODc2MSBMMTYzLjc1ODM4NywxOTMuNTA4NzYxIEwxNjMuNzU4Mzg3LDE4NS4wNjQxMiBDMTYxLjE4OTQ1NCwxODguMjg4OTUgMTU4LjU5MzIzMSwxOTAuNjM5MjE1IDE1NS45Njk2NDEsMTkyLjExNDk4NSBDMTUxLjM3ODM1NiwxOTQuNjgzOTE4IDE0Ni4xNTg1ODIsMTk1Ljk2ODM2NSAxNDAuMzEwMTYsMTk1Ljk2ODM2NSBDMTMwLjg1NDMwMSwxOTUuOTY4MzY1IDEyMi40MzcwNzMsMTkyLjcxNjI1NCAxMTUuMDU4MjI0LDE4Ni4yMTE5MzUgQzEwNi4yNTgyNjMsMTc4LjQ1MDQ3OCAxMDEuODU4MzQ4LDE2OC4xNzQ5MDEgMTAxLjg1ODM0OCwxNTUuMzg0ODk1IEMxMDEuODU4MzQ4LDE0Mi4zNzYyNTcgMTA2LjM2NzU3NywxMzEuOTkxMzY1IDExNS4zODYxNzEsMTI0LjIyOTkwOSBDMTIyLjU0NjM4OCwxMTguMDUzNTM4IDEzMC43NzIzMTUsMTE0Ljk2NTQgMTQwLjA2NDIsMTE0Ljk2NTQgQzE0NS40NzUzNTYsMTE0Ljk2NTQgMTUwLjU1ODQ4NywxMTYuMTEzMjAzIDE1NS4zMTM3NDYsMTE4LjQwODg0NSBDMTU4LjA0NjY1MywxMTkuNzIwNjQxIDE2MC44NjE1MDYsMTIxLjg3OTYwNSAxNjMuNzU4Mzg3LDEyNC44ODU4MDMgTDE2My43NTgzODcsMTE3LjQyNTAwNCBMMTkwLjY1MDA2LDExNy40MjUwMDQgTDE5MC42NTAwNiwxOTMuNTA4NzYxIFogTTE2NC41NzgyNTUsMTU1LjQ2Njg4MiBDMTY0LjU3ODI1NSwxNTAuNjU2OTY1IDE2Mi44ODM4NzgsMTQ2LjU3MTMzIDE1OS40OTUwNzMsMTQzLjIwOTg1NSBDMTU2LjEwNjI2OCwxMzkuODQ4Mzc5IDE1Mi4wMDY5NjksMTM4LjE2NzY2NiAxNDcuMTk3MDUyLDEzOC4xNjc2NjYgQzE0MS44NDA1NTQsMTM4LjE2NzY2NiAxMzcuNDQwNjM5LDE0MC4xODk5ODcgMTMzLjk5NzE3NiwxNDQuMjM0NjkgQzEzMS4yMDk2MTEsMTQ3LjUxNDE3OCAxMjkuODE1ODQ5LDE1MS4yNTgyMDUgMTI5LjgxNTg0OSwxNTUuNDY2ODgyIEMxMjkuODE1ODQ5LDE1OS42NzU1NTkgMTMxLjIwOTYxMSwxNjMuNDE5NTg2IDEzMy45OTcxNzYsMTY2LjY5OTA3NSBDMTM3LjM4NTk4MSwxNzAuNzQzNzc3IDE0MS43ODU4OTYsMTcyLjc2NjA5OCAxNDcuMTk3MDUyLDE3Mi43NjYwOTggQzE1Mi4wNjE2MjcsMTcyLjc2NjA5OCAxNTYuMTc0NTkxLDE3MS4wOTkwNSAxNTkuNTM2MDY3LDE2Ny43NjQ5MDMgQzE2Mi44OTc1NDMsMTY0LjQzMDc1NiAxNjQuNTc4MjU1LDE2MC4zMzE0NTcgMTY0LjU3ODI1NSwxNTUuNDY2ODgyIFogTTI5NC41NDE5MiwxNTUuNTQ4ODY5IEMyOTQuNTQxOTIsMTY4LjU1NzUwNyAyOTAuMDMyNjksMTc4Ljk0MjM5OSAyODEuMDE0MDk3LDE4Ni43MDM4NTYgQzI3My44NTM4OCwxOTIuODgwMjI2IDI2NS42Mjc5NTIsMTk1Ljk2ODM2NSAyNTYuMzM2MDY4LDE5NS45NjgzNjUgQzI1MC45MjQ5MTEsMTk1Ljk2ODM2NSAyNDUuODQxNzgsMTk0LjgyMDU2MSAyNDEuMDg2NTIyLDE5Mi41MjQ5MTkgQzIzOC4zNTM2MTQsMTkxLjIxMzEyMyAyMzUuNTM4NzYyLDE4OS4wNTQxNTkgMjMyLjY0MTg4LDE4Ni4wNDc5NjEgTDIzMi42NDE4OCwyMzEuNTUwNjM5IEwyMDUuNzUwMjA4LDIzMS41NTA2MzkgTDIwNS43NTAyMDgsMTE3LjQyNTAwNCBMMjMyLjY0MTg4LDExNy40MjUwMDQgTDIzMi42NDE4OCwxMjUuODY5NjQ1IEMyMzUuMDQ2ODM5LDEyMi42OTk0NzMgMjM3LjY0MzA2MiwxMjAuMzQ5MjA4IDI0MC40MzA2MjcsMTE4LjgxODc4IEMyNDUuMDIxOTExLDExNi4yNDk4NDcgMjUwLjI0MTY4NiwxMTQuOTY1NCAyNTYuMDkwMTA3LDExNC45NjU0IEMyNjUuNTQ1OTY2LDExNC45NjU0IDI3My45NjMxOTQsMTE4LjIxNzUxIDI4MS4zNDIwNDQsMTI0LjcyMTgzIEMyOTAuMTQyMDA1LDEzMi40ODMyODYgMjk0LjU0MTkyLDE0Mi43NTg4NjMgMjk0LjU0MTkyLDE1NS41NDg4NjkgWiBNMjY2LjU4NDQxOCwxNTUuNDY2ODgyIEMyNjYuNTg0NDE4LDE1MS4xNDg4ODkgMjY1LjIxNzk4NSwxNDcuNDA0ODYyIDI2Mi40ODUwNzgsMTQ0LjIzNDY5IEMyNTkuMDQxNjE1LDE0MC4xODk5ODcgMjU0LjYxNDM3MiwxMzguMTY3NjY2IDI0OS4yMDMyMTUsMTM4LjE2NzY2NiBDMjQ0LjMzODY0MSwxMzguMTY3NjY2IDI0MC4yMjU2NzcsMTM5LjgzNDcxNCAyMzYuODY0MjAxLDE0My4xNjg4NjEgQzIzMy41MDI3MjUsMTQ2LjUwMzAwOCAyMzEuODIyMDEyLDE1MC42MDIzMDcgMjMxLjgyMjAxMiwxNTUuNDY2ODgyIEMyMzEuODIyMDEyLDE2MC4yNzY3OTkgMjMzLjUxNjM4OSwxNjQuMzYyNDM0IDIzNi45MDUxOTQsMTY3LjcyMzkxIEMyNDAuMjkzOTk5LDE3MS4wODUzODYgMjQ0LjM5MzI5OSwxNzIuNzY2MDk4IDI0OS4yMDMyMTUsMTcyLjc2NjA5OCBDMjU0LjYxNDM3MiwxNzIuNzY2MDk4IDI1OS4wMTQyODYsMTcwLjc0Mzc3NyAyNjIuNDAzMDkxLDE2Ni42OTkwNzUgQzI2NS4xOTA2NTcsMTYzLjQxOTU4NiAyNjYuNTg0NDE4LDE1OS42NzU1NTkgMjY2LjU4NDQxOCwxNTUuNDY2ODgyIFogTTM2My42NzEzNzMsMTQyLjI2NzAwNiBDMzU5Ljg5OTk2MSwxNDAuNDYzMjg4IDM1Ni4wNzM5NDksMTM5LjU2MTQ0MiAzNTIuMTkzMjIsMTM5LjU2MTQ0MiBDMzQzLjMzODYwMSwxMzkuNTYxNDQyIDMzNy41OTk1ODIsMTQzLjE2ODgyNSAzMzQuOTc1OTkxLDE1MC4zODM3IEMzMzMuOTkyMTQ0LDE1My4wMDcyOTEgMzMzLjUwMDIyOCwxNTYuNTMyNjg5IDMzMy41MDAyMjgsMTYwLjk1OTk5OCBMMzMzLjUwMDIyOCwxOTMuNTA4NzYxIEwzMDYuNjA4NTU2LDE5My41MDg3NjEgTDMwNi42MDg1NTYsMTE3LjQyNTAwNCBMMzMzLjUwMDIyOCwxMTcuNDI1MDA0IEwzMzMuNTAwMjI4LDEyOS44ODY5OTggQzMzNi4zNDI0NTIsMTI1LjQ1OTY4OSAzMzkuNDAzMjYyLDEyMi4yNjIyMzUgMzQyLjY4Mjc1MSwxMjAuMjk0NTQyIEMzNDcuMTEwMDYsMTE3LjY3MDk1MSAzNTIuMzU3MTY0LDExNi4zNTkxNzUgMzU4LjQyNDIxOCwxMTYuMzU5MTc1IEMzNTkuODQ1MzI5LDExNi4zNTkxNzUgMzYxLjU5NDM2NCwxMTYuNDQxMTYxIDM2My42NzEzNzMsMTE2LjYwNTEzNiBMMzYzLjY3MTM3MywxNDIuMjY3MDA2IFoiIGlkPSJkYXByIiBmaWxsPSIjMEQyMTkyIi8+JiN4YTsgICAgICAgIDxwb2x5Z29uIGlkPSJ0aWUiIGZpbGw9IiMwRDIxOTIiIGZpbGwtcnVsZT0ibm9uemVybyIgcG9pbnRzPSIyMDUuNTM4NDA5IDE5NC4wNjIxNzIgMjMyLjYxNDU1MSAxOTQuMDYyMTcyIDIzNC45NDY2MjEgMjU3LjYzMzgzMSAyMTkuMDc2NDggMjY4Ljc1NDQzIDIwMy4yMDYzMzkgMjU3LjYzMzgzMSIvPiYjeGE7ICAgICAgICA8cmVjdCBpZD0iUmVjdGFuZ2xlLTQiIGZpbGw9IiMwRDIxOTIiIGZpbGwtcnVsZT0ibm9uemVybyIgeD0iMTQ0LjgyOTQ5NyIgeT0iMi4yNzkwODgyOSIgd2lkdGg9IjEwMi43MjI2NDMiIGhlaWdodD0iNzIuMjk0MTQ0NCIgcng9IjIiLz4mI3hhOyAgICAgICAgPHJlY3QgaWQ9IlJlY3RhbmdsZS00IiBmaWxsPSIjRkZGRkZGIiBmaWxsLXJ1bGU9Im5vbnplcm8iIG9wYWNpdHk9IjAuMDc5OTk5OTk4MiIgeD0iMTQ0LjgyOTQ5NyIgeT0iMi4yNzkwODgyOSIgd2lkdGg9IjM3Ljk5NzYzNjkiIGhlaWdodD0iNzIuMjk0MTQ0NCIvPiYjeGE7ICAgICAgICA8cmVjdCBpZD0iUmVjdGFuZ2xlLTMiIGZpbGw9IiMwRDIxOTIiIGZpbGwtcnVsZT0ibm9uemVybyIgeD0iMTEyLjM5MDc2OCIgeT0iNjkuOTA5MDk0NCIgd2lkdGg9IjE2Ni4yNDg0ODgiIGhlaWdodD0iMTcuMzUxMzQxMiIgcng9IjMuNzIwMTYiLz4mI3hhOyAgICAgICAgPHJlY3QgaWQ9IlJlY3RhbmdsZS00IiBmaWxsPSIjRkZGRkZGIiBmaWxsLXJ1bGU9Im5vbnplcm8iIG9wYWNpdHk9IjAuMDc5OTk5OTk4MiIgeD0iMTEyLjM5MDc2OCIgeT0iNjkuOTA5MDk0NCIgd2lkdGg9IjUxLjQzNzU0NzgiIGhlaWdodD0iMjEuMzU1NDk2OSIvPiYjeGE7ICAgIDwvZz4mI3hhOzwvc3ZnPg==;fontSize=10;strokeWidth=2;" parent="1" vertex="1">
                    <mxGeometry x="597.38" y="376.4" width="54.37" height="40" as="geometry"/>
                </mxCell>
                <mxCell id="24" style="edgeStyle=none;rounded=0;orthogonalLoop=1;jettySize=auto;html=1;exitX=0.5;exitY=1;exitDx=0;exitDy=0;exitPerimeter=0;" parent="1" source="29" target="29" edge="1">
                    <mxGeometry relative="1" as="geometry"/>
                </mxCell>
                <mxCell id="27" value="Dapr &#10;pubsub componet" style="fillColor=none;dashed=1;verticalAlign=top;fontStyle=0;fontColor=#5A6C86;strokeColor=#006633;" parent="1" vertex="1">
                    <mxGeometry x="365" y="225" width="160" height="310" as="geometry"/>
                </mxCell>
                <mxCell id="28" value="" style="shape=image;verticalLabelPosition=bottom;verticalAlign=top;imageAspect=0;aspect=fixed;image=data:image/svg+xml,PHN2ZyB4bWxucz0iaHR0cDovL3d3dy53My5vcmcvMjAwMC9zdmciIHhtbG5zOnhsaW5rPSJodHRwOi8vd3d3LnczLm9yZy8xOTk5L3hsaW5rIiB3aWR0aD0iMzY3cHgiIGhlaWdodD0iMjcwcHgiIHZpZXdCb3g9IjAgMCAzNjcgMjcwIiB2ZXJzaW9uPSIxLjEiPiYjeGE7ICAgIDwhLS0gR2VuZXJhdG9yOiBTa2V0Y2ggNTEuMyAoNTc1NDQpIC0gaHR0cDovL3d3dy5ib2hlbWlhbmNvZGluZy5jb20vc2tldGNoIC0tPiYjeGE7ICAgIDx0aXRsZT5BcnRib2FyZDwvdGl0bGU+JiN4YTsgICAgPGRlc2M+Q3JlYXRlZCB3aXRoIFNrZXRjaC48L2Rlc2M+JiN4YTsgICAgPGRlZnMvPiYjeGE7ICAgIDxnIGlkPSJBcnRib2FyZCIgc3Ryb2tlPSJub25lIiBzdHJva2Utd2lkdGg9IjEiIGZpbGw9Im5vbmUiIGZpbGwtcnVsZT0iZXZlbm9kZCI+JiN4YTsgICAgICAgIDxwYXRoIGQ9Ik04OS43OTE3MTE5LDE5My41MDg3NjEgTDYyLjkwMDAzOTIsMTkzLjUwODc2MSBMNjIuOTAwMDM5MiwxODUuMDY0MTIgQzYwLjMzMTEwNjQsMTg4LjI4ODk1IDU3LjczNDg4MzUsMTkwLjYzOTIxNSA1NS4xMTEyOTI2LDE5Mi4xMTQ5ODUgQzUwLjUyMDAwODQsMTk0LjY4MzkxOCA0NS4zMDAyMzM5LDE5NS45NjgzNjUgMzkuNDUxODEyNCwxOTUuOTY4MzY1IEMyOS45OTU5NTM0LDE5NS45NjgzNjUgMjEuNTc4NzI1NCwxOTIuNzE2MjU0IDE0LjE5OTg3NTksMTg2LjIxMTkzNSBDNS4zOTk5MTQ2NCwxNzguNDUwNDc4IDEsMTY4LjE3NDkwMSAxLDE1NS4zODQ4OTUgQzEsMTQyLjM3NjI1NyA1LjUwOTIyOTI5LDEzMS45OTEzNjUgMTQuNTI3ODIzMSwxMjQuMjI5OTA5IEMyMS42ODgwNDAxLDExOC4wNTM1MzggMjkuOTEzOTY3NCwxMTQuOTY1NCAzOS4yMDU4NTIsMTE0Ljk2NTQgQzQ0LjYxNzAwODMsMTE0Ljk2NTQgNDkuNzAwMTM5NSwxMTYuMTEzMjAzIDU0LjQ1NTM5ODEsMTE4LjQwODg0NSBDNTcuMTg4MzA1MywxMTkuNzIwNjQxIDYwLjAwMzE1NzYsMTIxLjg3OTYwNSA2Mi45MDAwMzkyLDEyNC44ODU4MDMgTDYyLjkwMDAzOTIsNzAuMzY0NTc2NiBMODkuNzkxNzExOSw3MC4zNjQ1NzY2IEw4OS43OTE3MTE5LDE5My41MDg3NjEgWiBNNjMuNzE5OTA3MywxNTUuNDY2ODgyIEM2My43MTk5MDczLDE1MC42NTY5NjUgNjIuMDI1NTMwMiwxNDYuNTcxMzMgNTguNjM2NzI1MywxNDMuMjA5ODU1IEM1NS4yNDc5MjAzLDEzOS44NDgzNzkgNTEuMTQ4NjIxLDEzOC4xNjc2NjYgNDYuMzM4NzA0MiwxMzguMTY3NjY2IEM0MC45ODIyMDYxLDEzOC4xNjc2NjYgMzYuNTgyMjkxNCwxNDAuMTg5OTg3IDMzLjEzODgyODMsMTQ0LjIzNDY5IEMzMC4zNTEyNjI5LDE0Ny41MTQxNzggMjguOTU3NTAxMiwxNTEuMjU4MjA1IDI4Ljk1NzUwMTIsMTU1LjQ2Njg4MiBDMjguOTU3NTAxMiwxNTkuNjc1NTU5IDMwLjM1MTI2MjksMTYzLjQxOTU4NiAzMy4xMzg4MjgzLDE2Ni42OTkwNzUgQzM2LjUyNzYzMzMsMTcwLjc0Mzc3NyA0MC45Mjc1NDc5LDE3Mi43NjYwOTggNDYuMzM4NzA0MiwxNzIuNzY2MDk4IEM1MS4yMDMyNzkxLDE3Mi43NjYwOTggNTUuMzE2MjQyOCwxNzEuMDk5MDUgNTguNjc3NzE4NywxNjcuNzY0OTAzIEM2Mi4wMzkxOTQ2LDE2NC40MzA3NTYgNjMuNzE5OTA3MywxNjAuMzMxNDU3IDYzLjcxOTkwNzMsMTU1LjQ2Njg4MiBaIE0xOTAuNjUwMDYsMTkzLjUwODc2MSBMMTYzLjc1ODM4NywxOTMuNTA4NzYxIEwxNjMuNzU4Mzg3LDE4NS4wNjQxMiBDMTYxLjE4OTQ1NCwxODguMjg4OTUgMTU4LjU5MzIzMSwxOTAuNjM5MjE1IDE1NS45Njk2NDEsMTkyLjExNDk4NSBDMTUxLjM3ODM1NiwxOTQuNjgzOTE4IDE0Ni4xNTg1ODIsMTk1Ljk2ODM2NSAxNDAuMzEwMTYsMTk1Ljk2ODM2NSBDMTMwLjg1NDMwMSwxOTUuOTY4MzY1IDEyMi40MzcwNzMsMTkyLjcxNjI1NCAxMTUuMDU4MjI0LDE4Ni4yMTE5MzUgQzEwNi4yNTgyNjMsMTc4LjQ1MDQ3OCAxMDEuODU4MzQ4LDE2OC4xNzQ5MDEgMTAxLjg1ODM0OCwxNTUuMzg0ODk1IEMxMDEuODU4MzQ4LDE0Mi4zNzYyNTcgMTA2LjM2NzU3NywxMzEuOTkxMzY1IDExNS4zODYxNzEsMTI0LjIyOTkwOSBDMTIyLjU0NjM4OCwxMTguMDUzNTM4IDEzMC43NzIzMTUsMTE0Ljk2NTQgMTQwLjA2NDIsMTE0Ljk2NTQgQzE0NS40NzUzNTYsMTE0Ljk2NTQgMTUwLjU1ODQ4NywxMTYuMTEzMjAzIDE1NS4zMTM3NDYsMTE4LjQwODg0NSBDMTU4LjA0NjY1MywxMTkuNzIwNjQxIDE2MC44NjE1MDYsMTIxLjg3OTYwNSAxNjMuNzU4Mzg3LDEyNC44ODU4MDMgTDE2My43NTgzODcsMTE3LjQyNTAwNCBMMTkwLjY1MDA2LDExNy40MjUwMDQgTDE5MC42NTAwNiwxOTMuNTA4NzYxIFogTTE2NC41NzgyNTUsMTU1LjQ2Njg4MiBDMTY0LjU3ODI1NSwxNTAuNjU2OTY1IDE2Mi44ODM4NzgsMTQ2LjU3MTMzIDE1OS40OTUwNzMsMTQzLjIwOTg1NSBDMTU2LjEwNjI2OCwxMzkuODQ4Mzc5IDE1Mi4wMDY5NjksMTM4LjE2NzY2NiAxNDcuMTk3MDUyLDEzOC4xNjc2NjYgQzE0MS44NDA1NTQsMTM4LjE2NzY2NiAxMzcuNDQwNjM5LDE0MC4xODk5ODcgMTMzLjk5NzE3NiwxNDQuMjM0NjkgQzEzMS4yMDk2MTEsMTQ3LjUxNDE3OCAxMjkuODE1ODQ5LDE1MS4yNTgyMDUgMTI5LjgxNTg0OSwxNTUuNDY2ODgyIEMxMjkuODE1ODQ5LDE1OS42NzU1NTkgMTMxLjIwOTYxMSwxNjMuNDE5NTg2IDEzMy45OTcxNzYsMTY2LjY5OTA3NSBDMTM3LjM4NTk4MSwxNzAuNzQzNzc3IDE0MS43ODU4OTYsMTcyLjc2NjA5OCAxNDcuMTk3MDUyLDE3Mi43NjYwOTggQzE1Mi4wNjE2MjcsMTcyLjc2NjA5OCAxNTYuMTc0NTkxLDE3MS4wOTkwNSAxNTkuNTM2MDY3LDE2Ny43NjQ5MDMgQzE2Mi44OTc1NDMsMTY0LjQzMDc1NiAxNjQuNTc4MjU1LDE2MC4zMzE0NTcgMTY0LjU3ODI1NSwxNTUuNDY2ODgyIFogTTI5NC41NDE5MiwxNTUuNTQ4ODY5IEMyOTQuNTQxOTIsMTY4LjU1NzUwNyAyOTAuMDMyNjksMTc4Ljk0MjM5OSAyODEuMDE0MDk3LDE4Ni43MDM4NTYgQzI3My44NTM4OCwxOTIuODgwMjI2IDI2NS42Mjc5NTIsMTk1Ljk2ODM2NSAyNTYuMzM2MDY4LDE5NS45NjgzNjUgQzI1MC45MjQ5MTEsMTk1Ljk2ODM2NSAyNDUuODQxNzgsMTk0LjgyMDU2MSAyNDEuMDg2NTIyLDE5Mi41MjQ5MTkgQzIzOC4zNTM2MTQsMTkxLjIxMzEyMyAyMzUuNTM4NzYyLDE4OS4wNTQxNTkgMjMyLjY0MTg4LDE4Ni4wNDc5NjEgTDIzMi42NDE4OCwyMzEuNTUwNjM5IEwyMDUuNzUwMjA4LDIzMS41NTA2MzkgTDIwNS43NTAyMDgsMTE3LjQyNTAwNCBMMjMyLjY0MTg4LDExNy40MjUwMDQgTDIzMi42NDE4OCwxMjUuODY5NjQ1IEMyMzUuMDQ2ODM5LDEyMi42OTk0NzMgMjM3LjY0MzA2MiwxMjAuMzQ5MjA4IDI0MC40MzA2MjcsMTE4LjgxODc4IEMyNDUuMDIxOTExLDExNi4yNDk4NDcgMjUwLjI0MTY4NiwxMTQuOTY1NCAyNTYuMDkwMTA3LDExNC45NjU0IEMyNjUuNTQ1OTY2LDExNC45NjU0IDI3My45NjMxOTQsMTE4LjIxNzUxIDI4MS4zNDIwNDQsMTI0LjcyMTgzIEMyOTAuMTQyMDA1LDEzMi40ODMyODYgMjk0LjU0MTkyLDE0Mi43NTg4NjMgMjk0LjU0MTkyLDE1NS41NDg4NjkgWiBNMjY2LjU4NDQxOCwxNTUuNDY2ODgyIEMyNjYuNTg0NDE4LDE1MS4xNDg4ODkgMjY1LjIxNzk4NSwxNDcuNDA0ODYyIDI2Mi40ODUwNzgsMTQ0LjIzNDY5IEMyNTkuMDQxNjE1LDE0MC4xODk5ODcgMjU0LjYxNDM3MiwxMzguMTY3NjY2IDI0OS4yMDMyMTUsMTM4LjE2NzY2NiBDMjQ0LjMzODY0MSwxMzguMTY3NjY2IDI0MC4yMjU2NzcsMTM5LjgzNDcxNCAyMzYuODY0MjAxLDE0My4xNjg4NjEgQzIzMy41MDI3MjUsMTQ2LjUwMzAwOCAyMzEuODIyMDEyLDE1MC42MDIzMDcgMjMxLjgyMjAxMiwxNTUuNDY2ODgyIEMyMzEuODIyMDEyLDE2MC4yNzY3OTkgMjMzLjUxNjM4OSwxNjQuMzYyNDM0IDIzNi45MDUxOTQsMTY3LjcyMzkxIEMyNDAuMjkzOTk5LDE3MS4wODUzODYgMjQ0LjM5MzI5OSwxNzIuNzY2MDk4IDI0OS4yMDMyMTUsMTcyLjc2NjA5OCBDMjU0LjYxNDM3MiwxNzIuNzY2MDk4IDI1OS4wMTQyODYsMTcwLjc0Mzc3NyAyNjIuNDAzMDkxLDE2Ni42OTkwNzUgQzI2NS4xOTA2NTcsMTYzLjQxOTU4NiAyNjYuNTg0NDE4LDE1OS42NzU1NTkgMjY2LjU4NDQxOCwxNTUuNDY2ODgyIFogTTM2My42NzEzNzMsMTQyLjI2NzAwNiBDMzU5Ljg5OTk2MSwxNDAuNDYzMjg4IDM1Ni4wNzM5NDksMTM5LjU2MTQ0MiAzNTIuMTkzMjIsMTM5LjU2MTQ0MiBDMzQzLjMzODYwMSwxMzkuNTYxNDQyIDMzNy41OTk1ODIsMTQzLjE2ODgyNSAzMzQuOTc1OTkxLDE1MC4zODM3IEMzMzMuOTkyMTQ0LDE1My4wMDcyOTEgMzMzLjUwMDIyOCwxNTYuNTMyNjg5IDMzMy41MDAyMjgsMTYwLjk1OTk5OCBMMzMzLjUwMDIyOCwxOTMuNTA4NzYxIEwzMDYuNjA4NTU2LDE5My41MDg3NjEgTDMwNi42MDg1NTYsMTE3LjQyNTAwNCBMMzMzLjUwMDIyOCwxMTcuNDI1MDA0IEwzMzMuNTAwMjI4LDEyOS44ODY5OTggQzMzNi4zNDI0NTIsMTI1LjQ1OTY4OSAzMzkuNDAzMjYyLDEyMi4yNjIyMzUgMzQyLjY4Mjc1MSwxMjAuMjk0NTQyIEMzNDcuMTEwMDYsMTE3LjY3MDk1MSAzNTIuMzU3MTY0LDExNi4zNTkxNzUgMzU4LjQyNDIxOCwxMTYuMzU5MTc1IEMzNTkuODQ1MzI5LDExNi4zNTkxNzUgMzYxLjU5NDM2NCwxMTYuNDQxMTYxIDM2My42NzEzNzMsMTE2LjYwNTEzNiBMMzYzLjY3MTM3MywxNDIuMjY3MDA2IFoiIGlkPSJkYXByIiBmaWxsPSIjMEQyMTkyIi8+JiN4YTsgICAgICAgIDxwb2x5Z29uIGlkPSJ0aWUiIGZpbGw9IiMwRDIxOTIiIGZpbGwtcnVsZT0ibm9uemVybyIgcG9pbnRzPSIyMDUuNTM4NDA5IDE5NC4wNjIxNzIgMjMyLjYxNDU1MSAxOTQuMDYyMTcyIDIzNC45NDY2MjEgMjU3LjYzMzgzMSAyMTkuMDc2NDggMjY4Ljc1NDQzIDIwMy4yMDYzMzkgMjU3LjYzMzgzMSIvPiYjeGE7ICAgICAgICA8cmVjdCBpZD0iUmVjdGFuZ2xlLTQiIGZpbGw9IiMwRDIxOTIiIGZpbGwtcnVsZT0ibm9uemVybyIgeD0iMTQ0LjgyOTQ5NyIgeT0iMi4yNzkwODgyOSIgd2lkdGg9IjEwMi43MjI2NDMiIGhlaWdodD0iNzIuMjk0MTQ0NCIgcng9IjIiLz4mI3hhOyAgICAgICAgPHJlY3QgaWQ9IlJlY3RhbmdsZS00IiBmaWxsPSIjRkZGRkZGIiBmaWxsLXJ1bGU9Im5vbnplcm8iIG9wYWNpdHk9IjAuMDc5OTk5OTk4MiIgeD0iMTQ0LjgyOTQ5NyIgeT0iMi4yNzkwODgyOSIgd2lkdGg9IjM3Ljk5NzYzNjkiIGhlaWdodD0iNzIuMjk0MTQ0NCIvPiYjeGE7ICAgICAgICA8cmVjdCBpZD0iUmVjdGFuZ2xlLTMiIGZpbGw9IiMwRDIxOTIiIGZpbGwtcnVsZT0ibm9uemVybyIgeD0iMTEyLjM5MDc2OCIgeT0iNjkuOTA5MDk0NCIgd2lkdGg9IjE2Ni4yNDg0ODgiIGhlaWdodD0iMTcuMzUxMzQxMiIgcng9IjMuNzIwMTYiLz4mI3hhOyAgICAgICAgPHJlY3QgaWQ9IlJlY3RhbmdsZS00IiBmaWxsPSIjRkZGRkZGIiBmaWxsLXJ1bGU9Im5vbnplcm8iIG9wYWNpdHk9IjAuMDc5OTk5OTk4MiIgeD0iMTEyLjM5MDc2OCIgeT0iNjkuOTA5MDk0NCIgd2lkdGg9IjUxLjQzNzU0NzgiIGhlaWdodD0iMjEuMzU1NDk2OSIvPiYjeGE7ICAgIDwvZz4mI3hhOzwvc3ZnPg==;fontSize=10;strokeWidth=2;" parent="1" vertex="1">
                    <mxGeometry x="490" y="210" width="54.37" height="40" as="geometry"/>
                </mxCell>
                <mxCell id="29" value="在庫Queue" style="outlineConnect=0;dashed=0;verticalLabelPosition=bottom;verticalAlign=top;align=center;html=1;shape=mxgraph.aws3.queue;fillColor=#D9A741;gradientColor=none;" parent="1" vertex="1">
                    <mxGeometry x="420" y="279.12" width="50" height="30.88" as="geometry"/>
                </mxCell>
                <mxCell id="31" style="edgeStyle=none;rounded=0;orthogonalLoop=1;jettySize=auto;html=1;exitX=0;exitY=0.5;exitDx=0;exitDy=0;exitPerimeter=0;entryX=1;entryY=0.75;entryDx=0;entryDy=0;" parent="1" source="32" target="41" edge="1">
                    <mxGeometry relative="1" as="geometry">
                        <mxPoint x="307.96000000000004" y="422.5" as="targetPoint"/>
                    </mxGeometry>
                </mxCell>
                <mxCell id="32" value="注文Queue" style="outlineConnect=0;dashed=0;verticalLabelPosition=bottom;verticalAlign=top;align=center;html=1;shape=mxgraph.aws3.queue;fillColor=#D9A741;gradientColor=none;" parent="1" vertex="1">
                    <mxGeometry x="420" y="484.12" width="50" height="30" as="geometry"/>
                </mxCell>
                <mxCell id="33" value="" style="fillColor=none;dashed=1;verticalAlign=top;fontStyle=0;fontColor=#5A6C86;strokeColor=#0000FF;" parent="1" vertex="1">
                    <mxGeometry x="577" y="340.06" width="200" height="120" as="geometry"/>
                </mxCell>
                <mxCell id="37" value="" style="shape=image;verticalLabelPosition=bottom;verticalAlign=top;imageAspect=0;aspect=fixed;image=data:image/png,iVBORw0KGgoAAAANSUhEUgAAAIAAAACACAYAAADDPmHLAAAAAXNSR0IArs4c6QAAGrVJREFUeF7tnXlgVNW9xz/nzmRmsi8kCEJYZYmAEEUgrPqKfdqqtSiKqHWry1N5rhWeC9a6tvpsta8+bS1uVay1vvpK7VMBEURkJyQhsiRsYkIIScg2+5z3x53lzpZMwsxkJuTzV+655wzMnO89y/ee8ztwiiGlnCWl/KOUslJK2SalrJVSlkopfyGlHNtZ+T6SFCnlXCnlBtkxLinl36WU53b2eX0kCVKt+I0d13tIPpNSTu3s85Md0VmGZERKKYDLgEeB4sD7rRZZXrbfdnxvjV1kpwqGnqbnrGHGMxSF04M+DP4J/EII8XWIe0lPrxKAlFIB5qFW/FkBt51VNY6vH3u78bTKw/YzAssKgTx/YuqOh67KFrkZyqTA+8CnwBNCiC9D3EtaeoUA3BX/Q+Bxgp9417fHHBvv/0PDgH01juHBpYOZXmQqe3hhtmVAji7UWGA98EshxN9D3Es6kloA7oq/HLXiiwJu26tqHJseer1h0L4ax7CgwhEwdYyxfOm1OeYBObrJBP9WvUIISSkATcU/AYwJuG2vqnFsWrysYfD+WsfQ4NJdZ/www56nfpJzfHCBfhrBv9lXwLPJKoSkEoCUMgW4GngYGB1w21ZV49j84GsNhQfqHEOCS58844cZ9jx+bU7TsNP05xL82+0AngY+EELI4NKJSVIIQFPxjwKBAzhbxQH7xsXLGs+oaXQMDC4dfYoK9fsevy7v6MiB+mmALuB2KfAUSSKEhBaAlNIALACWAiMDblsrDtg3Pfh6w6jaBueA4NKxp6gwZd/j1+WGE0IZ8DzwJyGEK7h0YpCQAnBX/A2oT/zggNttW/Zatz76VtPYuiZn/6DCPcCQ/rrDT16Xd2DcsJQSQB9wuxx4DnhHCOEMLt2zJJQApJRG4HrUJ36Q/z3atu6zbn3kraaxxxKk4gPpRAi7gF+SYEJICAFIKdOBnwIPgr8b56n4h99oLKpvdhWE/IAEozBf/+0jC7OrJ48yTgWMAberUYWwTAjhCC4dX3pUAFLKDOBmYAng149LSev6CsvWpX9qOutEmys35AckOIPz9UceXZhdNXmUcQpgCri9H3iWHhZCjwhAU/H/AZzmf4+W9RWWbUvfPjHxRLszJ+QHJBmD8vXfLV2YvW/yKOO5QGrA7QPAb4BXhBDWoMIxJq4CkFJmAnegNvV5fvegYeV2c9nT7zVPam53Zof8gCSnIFupf2RBTsXM8aYpBAvhEPAC8KoQwhJcOjbERQBSyizg34DFgF9z7pKyYdUOS9mTy08Ut5pdWSE/oJfRL0upX3p1TsXM8aZzgbSA24eB/wR+L4QwB5eOLjEVgJSyH7AIuBvwa85dkuOrdpjLn3i36ew2i8wM+QG9nLwspeHBK7LL5k5KPVsIAn+DOtQW4aVYCiEmApBS5gN3AfcAfs25S1K/YmNbxS//0nyuxSYD1X9KkpspGhbPzymbOym1WAgCW0GPEH4rhGgPUfykiKoApJQFwJ3AveD/RVySYys2tu169v3mKVa7DOz/+gByMpTGJVdm75w7KXWSEASOg+qB3wEvCCGaQxTvFlERgJSyP3AfanPv91Q7XfK7D9a17fvN/7ZMsdlk4FSojxCkG0XrA1dkbb1kWvpEEdB14hPCr4UQJ0IU7xInJQAp5enAQ6hTOr/Kdbo4/Paq1r2vftwyw+aQgWZIHxGQmSra7r88u+yHU1LHKkIECuE46vTx10KIthDFI6LbApBS3obqaPk1VU4XB5d90nLgtU/apjucrpTQpfvoChkm0XbfvOzSS6aljVWE//QZ1Ue4VQjxWYiindItAUgpn0R9J+/F5pQH/vB/rUfe/LRlqtMV5IP3EQXSDKL9/ityNl86LXWcIsjX3HIAVwshPghXNhxdFoCU8nrgDU2SZcUm88Yn3m2a4XDKvoqPAxmpSvPv7szdOX6ocQa+OrQDU4QQOzooGkSXBCClzAN2g1d95gdea/zm81Jz0NLrPmLPA1dkrb16TsZsTdLXwPSuLERROssQwDX4Kp8X/9a8va/ye47nP2ievWWv9QtN0jSgS5tZuiqAKzx/NLbKrW+tap3eUeY+Ys99rzZMdrmo1SRdGTZzCCIWgJTShKowAF766ETCLGo4lWmzyvS1FZbdmqTzwuUNRcQCAM4BDKAu0vhki3liJ/n7iBNvfNqqXQw7wb3AJiK6IoASzx8NLa491j5zJ2EoP2gbJSVN7ks9EPHu5m4JoOyg7aQtyD6ih5SIhhZZpUkqIUK6IgDv6HJ1qTXiJqaP+LCtytKquYyuAKSUQ/Gt0pVf7WoPXKPfRw/zeak1Q3NZ4t4i3ymROndeRdmc8kBji4xol22ikpepMHOciVnjTbRZXKwrt7Ch0kq7NWL/JOH4qtI8GnJcqA91PupGmn0dl+qGAA7UOo4ASSeAQfk6Zo9XK33yKCM6Tdt3ydQ0nC4oP2BjbbmFz0stHKzrsYW63aKlXWZa7bLKmCI8rfN0YiGA9RWWpHhMDCmC4hEGpowxcv5EE0P7d/xVdQpMHGFg4ggDiy7N4ki9k3UVFtaWWdiy14ozYTd3+aiucdQUDUnxCKAEeKuj/BCBAKSUqYB3zr+61Noj+/AiISdDYeaZJmaNN1JSZCLdFFE3GJJB+ToWzElnwZx0TrS52LzHyrpyK2vKLLSaE1MNX1ZYKBrifQMf0UCw019ISjkTWKf+TeuUe75LdbmCNkL2GCMH6pk13sTs8SYmDDegdPqNTg6XC8rcXcWanRYOHE2crmLMYH31u4v7j3BfOoG8zpaPddoCoDWA2lx7XC7O7ihzrPE07bMnmDjvLBMDcuOrRaWDrmLrPhsOZ8/1kHuOOIZLaBTq0nsdMBlY3VGZLglgZ5UtaosRu0JuhsKMKDXt0SZcV/FFmYWWOHcVUiKOn3BW5WfrJruTSoiCADQGULt2rhlThvbX8/1zUpk1zsSZQ1IQiVPnYclOV5hbnMrc4lTsTsm2fTbWlVv4ZKuZhpb4iGF7tb31gmJvq9jpOKBDI0hKOQzfbl25fpctbgbQ4XoHm/dY2bzHyv4E6mcj5fAxJ5WH7FQettPYGp/KB1i1w6Jdjj+tM0Oow5tSyquBdwFsTqpL7vnOM8CIO9p5/DlnGNDrEqtJsNolO6rVJ371DgtHm3rmbXm6UbSufX5gKr6IJWOEEHvC5e+sC/A2Iftr7d8BcRNAmlH4OXNH6p0sX9PG8jVtZKUpTBljdAvCSFZaRI521GlocbGh0sracgtf7bKEdRIDv0ssabPKDKtN7jMahCeWUglw8gL4sjy+BtBvbu9HbobCyu1m1pZZ+OZbO9L9P2hud7Fyu5mV280oCowZlMLsCWrrUFQY25Xo1bUO1pZZWFdhobTa5v0/aVEEjBms/p/mFqfydaWV//wwfi9Qq2odNWcOSdEK4M1wecMKwG0AecOtfl5qjksELi0jBui59aJMbr0ok5oGJxsqrV7f3u6ebrlcUHlY7Wtf/biFQfk6prpbh2lFRlJOsqvQNu2rdlioC9O0G1MEU8cYVU9igpH8LN/09OvK+G77X1tuUc6M0BDqqAWYjG8FUMvuI5GFWY0VA/N0zJuRxrwZaTS3u9i0O7Qzd6TeyYf17Xy4vp1Ug+Dc0WqlnHeWibzMyLqKSJt2rfM4/UwTacaTE1u0+LzUcvrtP/BuNh4vpcwKZwh1JADtCqC9PW0AaclK8023PM7cZ9vNrC61cLTR94SabZK15RbWllt45v2Ou4pImnbwDUYvKE6Ni/PYHapq7MNcUjYoQuShzvSmACtD5Y1IADuqe8YAigStM/fA5dlhKzKwqygs0DNznJF2i2RdhSXsPF07xrigOJXhAzobNvU8UiKON7uqCrJ1nm1kJXRDAN4VwJ/vtMTNADpZRgzQM2JABjdckEFto5OvdgWPGwAOH3OwfE1of0Hbn8+ZYKJfVmRdRyKxda+97cLJnRtCIQUgpRyOL2qX/GqXJW4GUDQZkOsbN5htki17rKzcbglp02rt5hnjTKQaErBt7wKrSs3ZF072btgukVIqoSKWhmsBvIqx2uX+E22uuM3/Y0WqQTDLbSTZnZLbXjxO6X4bAPNmpPHQVTlJYTdHysZKyyjUN4I61BgDo4FvAvOFa9u8AqiudXwXJk/SkqITGDVPeIZJ6VWVD25DyE6nK4U7FcD6XfE1gOKFdpTfK78gsOeI/ajmMjIBBBpAa0otcTeA4oGfAHqpAr6ssGjrNzIBoO4qSQGQkubd39qTvv8PRS+tcz8+32HWRlo/U0oZFIAzlAD8DSAZ2d6BpEPz2PfWFqD6qGOIS3LcfekxhPzoUADbq20tIe73kSRIiag74ajWJAV1A6EE4FsBtMPcayN4ah962Ys7hO177doIYh0LQEo5Ao0B9HVl/FYAxZtTYRAIsGqHWRtebppUT1zzEtgCaA2g6t4Srj0Ufi1ALxbAxt22UahRxEA1hPyO2QsrgOpaZ68zgLT05krX0m51pVtsflvH/cL6hBXA+oq4hazvGU6RLgBg7xFHWEPIKwApZRoaA2hVaXuok7R7Df6DwN7NF+Vm7e6Z0AJANYD0AFJyYl8PrwCKNafKIBBgzU6L1hAqklJ6D+0IaRUeb3b2XgPoFGR/rWOoS3LMfSnQGEIhBbB9n00bbqRXcip1AQB1jY79mktvXWsF4DWAVu209FoDyIM8xRSwZa9de9qIvwCklCPxHd/m2vhN7zWAfGjfBfR+BazeYdYe1uU1hDwtgMYAoqq5FxtAHk6F9QBaNu6xag2hLKAIQgigqsaujTvbazmVZgEAFptMM1ulNmZQCYQQwLryXm4AuTnFhgAA7D5iq9NcqgJwx5Wd4En9vMySEAbQU8ub+DLJ3Ugp4R+bzLyxMjHeqq8rswUZQgoBBlDVEXtCGEAH6xzc/UoDd/zXcapqoh8fINazgPIDNm58oZ6lbzdyvDl+8QE6YvXO9iGay7FSyjw9mua/XjWAPOFFEoKNu60s/OUxLp2Wyp0XZ5GTEX1/KppjgKONTl5e0cI/NrdH9XOjwaE6Z6FLUqcI+uM2hPRodgDt/taekAaQwyn5cH07K7dbuO0Hmcyfle4X6LE7RHsWYLZJ3l7VyuuftWKzR+MTY0Nji+twvyylv/uyRA+c6blZXes8yZ81tjS3u3jugxO8v7aN++ZlMXNc98+hjNZ6ACnh481mXvzoRMI09R1Rd8Jp1mx1G6sHvC8KFCUqD0PM8YwPpo4xcv/l2Ywc2PUNm9FoAcoP2Hj+r82UHbB1ljVhUITf1z1dD1hwn/pZmK/r7m/RI5zM+ECehAISuZ/vjPwcnTbUv0UPHMJ9Pu3ZI439QpZKYKIxPoh0UWiy9PPhMBlEe166ol0SdkgBVnmuMtPEuKLClE4jTCcinvHB/Kfqor6ayTOfv+zxOl79uCUpKx9gwZz07UKgbQE+U1BPAfV8I+W5m3M9GwmSkoN1Dv49Av8gUiu4/ICNm36tzufrm3sm9Fs0SDMqbXdcnKn1eJqAvytCiJ3Anz2pA/vpp97+w8x1QZ+QZHjGB0+910RTiECNnc0CjjY5eeztJm54oZ6d+5NnkBeOl+/K3aZThNblfUQI0ebpLRcBhz13brkw89ziMwy7SHI844MfP1HHe1+0+cX8DzcGNNskv/9nC5f9oo4Vm5JvkBeKm/81Y8OEYcZZmqQvgFfA/TJICFGPeiqo1Z3B9Oqifjm5maKBXoBnfHDl077xQaAVLCWs3G7miieTu58PZPwww547Ls7SnvFYCywUQjghIFSslPLfgJc918ebXdsufLR2YiKdDxANZo83seuQ3duneyKGVR62d1Qs6chO0zV98nT/5hSd8LwDsAPfE0J4u/iguBhSymXAjZ7rldvNaxYvazwvMF8fiY0QyL///LRNA/N02sOk/10I8VttvlAz5juAbZ6LucWpc348I31jiHx9JDDP3Jj3RUDlvxdY+RBCAEIIC3A5ePeVi4evyh4zrL/+UGDePhKTucWp2y4oNmkHfd8At4bKG9IzE0IcAG4AXOo1Oe8uLrCYDEK7srSPBGRQP913z9yYMwxfuPgWYJ4QIuSqlLCmqRBiBfC059poEKPfeqBge7j8ffQ8Rr2wLl/S/4Q7RCyoM9ybhBCV4cp05po/Bvyf52LkQP2MRZdkre0gfx89yB/vzd+UbhJFmqRfCSE+CFuATgTgjix5DbDfk3bD9zOmTh5tKA1fqo+e4MbvZ6wvGpKi7fc/Bx4Jl99DZy0AQogGYB5gdicZ//vO/IK8TCWp3xn0JsYPM+y565IsbTT3WuAaIUSniyk7FQCAEGIHcI/nWlE4/f2H+h9UFJL37UgvITtN1/TaPf1SgVR3kh2YL4So6aCYl4gEACCE+D2wzHOdm6Gc/fxP85L+pVF3Wf3sAFY8fho9iSJw/fmh/H0pOlGoSb5XCPFl2EIBRCwAN3cCWz0XcyaY5syflf51B/n7iCHP3JS3tsB3SCTAciHE78IWCEGXBKAxieo9SYvnZxcNH6DXxqLrIw7MPTt129xJfmZPGXBLuPzh6JIAAIQQB4GFqKHIEYLsd35W4OwzieLH4Hz9kWduCDJ7rhRCaGMCRkTXl9MCQojPpJRPovoEGA1i1NsPFHw1/+k6vwhUsWLM4BTeXVzAio3tvPJxC/f8OIspo42k6AU799v47UfNYd/szRhn4iffS6eo0IBeBweOOvhoQzt/+bINV4hV3ZeVpLHw/AwKC3Q0tLj4x6Z2/vDPnts+YTAIy/IlBc2KEIPcSRK4UQgRdBZAJHS5BdDwC+CfnosRA/XT774sviZRbobCG/fnU1RoYP0uK5WH7EwdY+SP9+YzfpghKP/V56Xz0u15TBphoPygjQ2VVgbn63lwfjZPX6/dPq9yy0WZPLowh9P76VhfYWXXITtXn5fBMzcG540Xy+7J35Jm9DN7nhVC/DVsgU7oVgsAqkkkpbwG2IL7RNGffC+jZNMe284NuyzeaGOxZMY4E2t2WliyrNF7HtDFU9J4/Locli7M4apn6rwLP4b213PPZVm0WSS3vlTPN+4WIi9T4Q9353PB2amsq7Dwj02q3TF8gJ5bL8ykocXFDS8c40i9OuM9PU/H6/fnk52u0G6N7yz4josz1xUVBpk9j4bLHwkn0wIghGjE3yRKeem23IK8TJ02Ll3McEl44cMTfodBrdjUzs79NkYO1DNxhK8V+FFJGnqd4L0vWr2VD+oZgS/+TT0U7cpZvgWzl05LQ1HgzZWt3soH+K7Byeufxr8LOGuYYffN/5qpHfF/C1zlWdnTXU5KAABCiFLgNs+1ooiB7z9UUKNT6NSFOlm+OWznyPHg7//ZdlWPE4f7BOD5+9NtwUvG11VYaLNIioYYMOiFX/5VOzza9uH5/HiRna40vnZvfhr+Zs8CIYQn8le3OWkBAAgh3gZe81znZiiTXrg1L2IzortoD4nUUtugphdk+1ay5WerX7WmIViXUkJtoxOdgnd3UX6WDpck5FGxDS0uv1YnligC15//o6BKp6A1e+4WQqwPW6gLREUAbu5CHQ8AMHOcac5VszM2dJD/pAlXBZ4DoLQLP0Xw6rek4Fc3B5k97woh/jtsgS4SNQEIIawEmEQ/uyJrwuhBsTOJBuSGXqt6mjv9eIvv6T12Qv17YF7wuFcI9bOcLrx7COqbnSgC+ucE/xt5mcpJH0odCRdPTdt8/kTTbE1St8yejoiaAACEEIeABfhMoow37i9wphpETEZNYwencHpecAXNLVa7ytJq34YOzxmBF5wdvKV8+pkm0k2CykM2bA612fBsBvmXiZ5u18cFxcFp0WZwvv7Iz6/NGYmvjjxmT1QNt6gKAEAIsQrVIwDAmCJGvbO4YGcHRbqNosC987LRa57GiyanMnG4gf21DnZoBPDRhnYcTsmC2emMHuQ7ODonQ+HuH2UB8Jd1vt/2f79ux+WCn8xNZ1A/n8gG5Oq4fm5sT9L1mD0CtCt7buiu2dMRMWnHpJQC+BC4zJO2fE3rF8//tXlO+FKR43EC11dYGFOYgtWmPuGn5eo45wwDNrvk9t/6Tgb1cPV56TxweTZ2p2TTbhtmm4spo41kpSl8ts3Mktcb/fLf/oNMbrkoE7NNsqHSipRQUmRk024rxSMNtFslFz8W/Rnvu0sKvhwzKGWmJukpIUSnizu6Q9RbAAAhhARuAt/JlVeflzF95pmGqLYEja0ubnqhnt1H7Mwab2TckBQ277Hy0xfrgyofYPmaNu5+pYGd1TaKRxqYPc5EbaOT5z44wUNv+lc+wCsft/Dk8iZqGpzMGm9k/NAU3l/bxpJlwXmjxd2XZa8NqPzVuC33WBCTFsCDlPIsYAOQBuCS1P1w6VHqmpyeGDXdQvsu4LE/NXWWPWmYPNpU8eqivDMAozvpMHBONOb74YhJC+BBqDuPvevRFUH/95YUHNEponftwYoC2elK48t35mXhq/yomT0dEVMBAAgh3gFe9VxnpyvFL92eFxUTo7egCFzvB5s9i4QQX4UtFCViLgA3iwDvl5lWZJyzYE5sTaJk4vlb+63N9zd73hFCvEociOkYQIuUshB1OVmBek3bNb86Vrv7W/spEJo+PJdOTdv82LU55+B7GHcCJdGe74cjXi0AQojD+JtE6W88kK+km0JvWToVKMzXf7vU3+xpQt3GFZfKhzgKAEAI4TelMejE8HcW9y+ly4Hakh+32dMaYPbcJITQnvEXc+IqADdPo5pEABTm62YuuTI7riuJEoE378vfkmoUYzVJTwoh/idsgRgRdwG4TaKbAW84uvmz0qefPzH1lNl4+rP52V+M9jd7PgV+HiZ7TIm7AACEEE2oMYk8fV3Kczfnjo62U5iILLokc92C2enaN3wHUbdx9Uig4bjNAkIhpbwOeEuTZF9Xbl3/8BsNk9usMrZvXOLMwFx9zct35e0f0l+vXTltBWYJITaHKxdrelQAAFLK/0LdcaSl/WCdY8eug3ZbVa09xWztmZaqu6TopBmBKzNVpx92mo5JI4xZ/bKUiRAUbOsWIcRr9CCJIAAdarTSazvJ2tt4WAjxND1Mjz9Z7lWtNwAPoUYu7+3UoXr8PV75kAAtgBYp5VDgeuBS1L0GPbcDI3pIoAbYDXyAuqYvYV5h/j/GWaFV0MUuoQAAAABJRU5ErkJggg==" parent="1" vertex="1">
                    <mxGeometry x="651.75" y="300" width="60" height="60" as="geometry"/>
                </mxCell>
                <mxCell id="41" value="" style="shape=image;verticalLabelPosition=bottom;verticalAlign=top;imageAspect=0;aspect=fixed;image=data:image/svg+xml,PHN2ZyB4bWxucz0iaHR0cDovL3d3dy53My5vcmcvMjAwMC9zdmciIHhtbG5zOnhsaW5rPSJodHRwOi8vd3d3LnczLm9yZy8xOTk5L3hsaW5rIiB3aWR0aD0iMzY3cHgiIGhlaWdodD0iMjcwcHgiIHZpZXdCb3g9IjAgMCAzNjcgMjcwIiB2ZXJzaW9uPSIxLjEiPiYjeGE7ICAgIDwhLS0gR2VuZXJhdG9yOiBTa2V0Y2ggNTEuMyAoNTc1NDQpIC0gaHR0cDovL3d3dy5ib2hlbWlhbmNvZGluZy5jb20vc2tldGNoIC0tPiYjeGE7ICAgIDx0aXRsZT5BcnRib2FyZDwvdGl0bGU+JiN4YTsgICAgPGRlc2M+Q3JlYXRlZCB3aXRoIFNrZXRjaC48L2Rlc2M+JiN4YTsgICAgPGRlZnMvPiYjeGE7ICAgIDxnIGlkPSJBcnRib2FyZCIgc3Ryb2tlPSJub25lIiBzdHJva2Utd2lkdGg9IjEiIGZpbGw9Im5vbmUiIGZpbGwtcnVsZT0iZXZlbm9kZCI+JiN4YTsgICAgICAgIDxwYXRoIGQ9Ik04OS43OTE3MTE5LDE5My41MDg3NjEgTDYyLjkwMDAzOTIsMTkzLjUwODc2MSBMNjIuOTAwMDM5MiwxODUuMDY0MTIgQzYwLjMzMTEwNjQsMTg4LjI4ODk1IDU3LjczNDg4MzUsMTkwLjYzOTIxNSA1NS4xMTEyOTI2LDE5Mi4xMTQ5ODUgQzUwLjUyMDAwODQsMTk0LjY4MzkxOCA0NS4zMDAyMzM5LDE5NS45NjgzNjUgMzkuNDUxODEyNCwxOTUuOTY4MzY1IEMyOS45OTU5NTM0LDE5NS45NjgzNjUgMjEuNTc4NzI1NCwxOTIuNzE2MjU0IDE0LjE5OTg3NTksMTg2LjIxMTkzNSBDNS4zOTk5MTQ2NCwxNzguNDUwNDc4IDEsMTY4LjE3NDkwMSAxLDE1NS4zODQ4OTUgQzEsMTQyLjM3NjI1NyA1LjUwOTIyOTI5LDEzMS45OTEzNjUgMTQuNTI3ODIzMSwxMjQuMjI5OTA5IEMyMS42ODgwNDAxLDExOC4wNTM1MzggMjkuOTEzOTY3NCwxMTQuOTY1NCAzOS4yMDU4NTIsMTE0Ljk2NTQgQzQ0LjYxNzAwODMsMTE0Ljk2NTQgNDkuNzAwMTM5NSwxMTYuMTEzMjAzIDU0LjQ1NTM5ODEsMTE4LjQwODg0NSBDNTcuMTg4MzA1MywxMTkuNzIwNjQxIDYwLjAwMzE1NzYsMTIxLjg3OTYwNSA2Mi45MDAwMzkyLDEyNC44ODU4MDMgTDYyLjkwMDAzOTIsNzAuMzY0NTc2NiBMODkuNzkxNzExOSw3MC4zNjQ1NzY2IEw4OS43OTE3MTE5LDE5My41MDg3NjEgWiBNNjMuNzE5OTA3MywxNTUuNDY2ODgyIEM2My43MTk5MDczLDE1MC42NTY5NjUgNjIuMDI1NTMwMiwxNDYuNTcxMzMgNTguNjM2NzI1MywxNDMuMjA5ODU1IEM1NS4yNDc5MjAzLDEzOS44NDgzNzkgNTEuMTQ4NjIxLDEzOC4xNjc2NjYgNDYuMzM4NzA0MiwxMzguMTY3NjY2IEM0MC45ODIyMDYxLDEzOC4xNjc2NjYgMzYuNTgyMjkxNCwxNDAuMTg5OTg3IDMzLjEzODgyODMsMTQ0LjIzNDY5IEMzMC4zNTEyNjI5LDE0Ny41MTQxNzggMjguOTU3NTAxMiwxNTEuMjU4MjA1IDI4Ljk1NzUwMTIsMTU1LjQ2Njg4MiBDMjguOTU3NTAxMiwxNTkuNjc1NTU5IDMwLjM1MTI2MjksMTYzLjQxOTU4NiAzMy4xMzg4MjgzLDE2Ni42OTkwNzUgQzM2LjUyNzYzMzMsMTcwLjc0Mzc3NyA0MC45Mjc1NDc5LDE3Mi43NjYwOTggNDYuMzM4NzA0MiwxNzIuNzY2MDk4IEM1MS4yMDMyNzkxLDE3Mi43NjYwOTggNTUuMzE2MjQyOCwxNzEuMDk5MDUgNTguNjc3NzE4NywxNjcuNzY0OTAzIEM2Mi4wMzkxOTQ2LDE2NC40MzA3NTYgNjMuNzE5OTA3MywxNjAuMzMxNDU3IDYzLjcxOTkwNzMsMTU1LjQ2Njg4MiBaIE0xOTAuNjUwMDYsMTkzLjUwODc2MSBMMTYzLjc1ODM4NywxOTMuNTA4NzYxIEwxNjMuNzU4Mzg3LDE4NS4wNjQxMiBDMTYxLjE4OTQ1NCwxODguMjg4OTUgMTU4LjU5MzIzMSwxOTAuNjM5MjE1IDE1NS45Njk2NDEsMTkyLjExNDk4NSBDMTUxLjM3ODM1NiwxOTQuNjgzOTE4IDE0Ni4xNTg1ODIsMTk1Ljk2ODM2NSAxNDAuMzEwMTYsMTk1Ljk2ODM2NSBDMTMwLjg1NDMwMSwxOTUuOTY4MzY1IDEyMi40MzcwNzMsMTkyLjcxNjI1NCAxMTUuMDU4MjI0LDE4Ni4yMTE5MzUgQzEwNi4yNTgyNjMsMTc4LjQ1MDQ3OCAxMDEuODU4MzQ4LDE2OC4xNzQ5MDEgMTAxLjg1ODM0OCwxNTUuMzg0ODk1IEMxMDEuODU4MzQ4LDE0Mi4zNzYyNTcgMTA2LjM2NzU3NywxMzEuOTkxMzY1IDExNS4zODYxNzEsMTI0LjIyOTkwOSBDMTIyLjU0NjM4OCwxMTguMDUzNTM4IDEzMC43NzIzMTUsMTE0Ljk2NTQgMTQwLjA2NDIsMTE0Ljk2NTQgQzE0NS40NzUzNTYsMTE0Ljk2NTQgMTUwLjU1ODQ4NywxMTYuMTEzMjAzIDE1NS4zMTM3NDYsMTE4LjQwODg0NSBDMTU4LjA0NjY1MywxMTkuNzIwNjQxIDE2MC44NjE1MDYsMTIxLjg3OTYwNSAxNjMuNzU4Mzg3LDEyNC44ODU4MDMgTDE2My43NTgzODcsMTE3LjQyNTAwNCBMMTkwLjY1MDA2LDExNy40MjUwMDQgTDE5MC42NTAwNiwxOTMuNTA4NzYxIFogTTE2NC41NzgyNTUsMTU1LjQ2Njg4MiBDMTY0LjU3ODI1NSwxNTAuNjU2OTY1IDE2Mi44ODM4NzgsMTQ2LjU3MTMzIDE1OS40OTUwNzMsMTQzLjIwOTg1NSBDMTU2LjEwNjI2OCwxMzkuODQ4Mzc5IDE1Mi4wMDY5NjksMTM4LjE2NzY2NiAxNDcuMTk3MDUyLDEzOC4xNjc2NjYgQzE0MS44NDA1NTQsMTM4LjE2NzY2NiAxMzcuNDQwNjM5LDE0MC4xODk5ODcgMTMzLjk5NzE3NiwxNDQuMjM0NjkgQzEzMS4yMDk2MTEsMTQ3LjUxNDE3OCAxMjkuODE1ODQ5LDE1MS4yNTgyMDUgMTI5LjgxNTg0OSwxNTUuNDY2ODgyIEMxMjkuODE1ODQ5LDE1OS42NzU1NTkgMTMxLjIwOTYxMSwxNjMuNDE5NTg2IDEzMy45OTcxNzYsMTY2LjY5OTA3NSBDMTM3LjM4NTk4MSwxNzAuNzQzNzc3IDE0MS43ODU4OTYsMTcyLjc2NjA5OCAxNDcuMTk3MDUyLDE3Mi43NjYwOTggQzE1Mi4wNjE2MjcsMTcyLjc2NjA5OCAxNTYuMTc0NTkxLDE3MS4wOTkwNSAxNTkuNTM2MDY3LDE2Ny43NjQ5MDMgQzE2Mi44OTc1NDMsMTY0LjQzMDc1NiAxNjQuNTc4MjU1LDE2MC4zMzE0NTcgMTY0LjU3ODI1NSwxNTUuNDY2ODgyIFogTTI5NC41NDE5MiwxNTUuNTQ4ODY5IEMyOTQuNTQxOTIsMTY4LjU1NzUwNyAyOTAuMDMyNjksMTc4Ljk0MjM5OSAyODEuMDE0MDk3LDE4Ni43MDM4NTYgQzI3My44NTM4OCwxOTIuODgwMjI2IDI2NS42Mjc5NTIsMTk1Ljk2ODM2NSAyNTYuMzM2MDY4LDE5NS45NjgzNjUgQzI1MC45MjQ5MTEsMTk1Ljk2ODM2NSAyNDUuODQxNzgsMTk0LjgyMDU2MSAyNDEuMDg2NTIyLDE5Mi41MjQ5MTkgQzIzOC4zNTM2MTQsMTkxLjIxMzEyMyAyMzUuNTM4NzYyLDE4OS4wNTQxNTkgMjMyLjY0MTg4LDE4Ni4wNDc5NjEgTDIzMi42NDE4OCwyMzEuNTUwNjM5IEwyMDUuNzUwMjA4LDIzMS41NTA2MzkgTDIwNS43NTAyMDgsMTE3LjQyNTAwNCBMMjMyLjY0MTg4LDExNy40MjUwMDQgTDIzMi42NDE4OCwxMjUuODY5NjQ1IEMyMzUuMDQ2ODM5LDEyMi42OTk0NzMgMjM3LjY0MzA2MiwxMjAuMzQ5MjA4IDI0MC40MzA2MjcsMTE4LjgxODc4IEMyNDUuMDIxOTExLDExNi4yNDk4NDcgMjUwLjI0MTY4NiwxMTQuOTY1NCAyNTYuMDkwMTA3LDExNC45NjU0IEMyNjUuNTQ1OTY2LDExNC45NjU0IDI3My45NjMxOTQsMTE4LjIxNzUxIDI4MS4zNDIwNDQsMTI0LjcyMTgzIEMyOTAuMTQyMDA1LDEzMi40ODMyODYgMjk0LjU0MTkyLDE0Mi43NTg4NjMgMjk0LjU0MTkyLDE1NS41NDg4NjkgWiBNMjY2LjU4NDQxOCwxNTUuNDY2ODgyIEMyNjYuNTg0NDE4LDE1MS4xNDg4ODkgMjY1LjIxNzk4NSwxNDcuNDA0ODYyIDI2Mi40ODUwNzgsMTQ0LjIzNDY5IEMyNTkuMDQxNjE1LDE0MC4xODk5ODcgMjU0LjYxNDM3MiwxMzguMTY3NjY2IDI0OS4yMDMyMTUsMTM4LjE2NzY2NiBDMjQ0LjMzODY0MSwxMzguMTY3NjY2IDI0MC4yMjU2NzcsMTM5LjgzNDcxNCAyMzYuODY0MjAxLDE0My4xNjg4NjEgQzIzMy41MDI3MjUsMTQ2LjUwMzAwOCAyMzEuODIyMDEyLDE1MC42MDIzMDcgMjMxLjgyMjAxMiwxNTUuNDY2ODgyIEMyMzEuODIyMDEyLDE2MC4yNzY3OTkgMjMzLjUxNjM4OSwxNjQuMzYyNDM0IDIzNi45MDUxOTQsMTY3LjcyMzkxIEMyNDAuMjkzOTk5LDE3MS4wODUzODYgMjQ0LjM5MzI5OSwxNzIuNzY2MDk4IDI0OS4yMDMyMTUsMTcyLjc2NjA5OCBDMjU0LjYxNDM3MiwxNzIuNzY2MDk4IDI1OS4wMTQyODYsMTcwLjc0Mzc3NyAyNjIuNDAzMDkxLDE2Ni42OTkwNzUgQzI2NS4xOTA2NTcsMTYzLjQxOTU4NiAyNjYuNTg0NDE4LDE1OS42NzU1NTkgMjY2LjU4NDQxOCwxNTUuNDY2ODgyIFogTTM2My42NzEzNzMsMTQyLjI2NzAwNiBDMzU5Ljg5OTk2MSwxNDAuNDYzMjg4IDM1Ni4wNzM5NDksMTM5LjU2MTQ0MiAzNTIuMTkzMjIsMTM5LjU2MTQ0MiBDMzQzLjMzODYwMSwxMzkuNTYxNDQyIDMzNy41OTk1ODIsMTQzLjE2ODgyNSAzMzQuOTc1OTkxLDE1MC4zODM3IEMzMzMuOTkyMTQ0LDE1My4wMDcyOTEgMzMzLjUwMDIyOCwxNTYuNTMyNjg5IDMzMy41MDAyMjgsMTYwLjk1OTk5OCBMMzMzLjUwMDIyOCwxOTMuNTA4NzYxIEwzMDYuNjA4NTU2LDE5My41MDg3NjEgTDMwNi42MDg1NTYsMTE3LjQyNTAwNCBMMzMzLjUwMDIyOCwxMTcuNDI1MDA0IEwzMzMuNTAwMjI4LDEyOS44ODY5OTggQzMzNi4zNDI0NTIsMTI1LjQ1OTY4OSAzMzkuNDAzMjYyLDEyMi4yNjIyMzUgMzQyLjY4Mjc1MSwxMjAuMjk0NTQyIEMzNDcuMTEwMDYsMTE3LjY3MDk1MSAzNTIuMzU3MTY0LDExNi4zNTkxNzUgMzU4LjQyNDIxOCwxMTYuMzU5MTc1IEMzNTkuODQ1MzI5LDExNi4zNTkxNzUgMzYxLjU5NDM2NCwxMTYuNDQxMTYxIDM2My42NzEzNzMsMTE2LjYwNTEzNiBMMzYzLjY3MTM3MywxNDIuMjY3MDA2IFoiIGlkPSJkYXByIiBmaWxsPSIjMEQyMTkyIi8+JiN4YTsgICAgICAgIDxwb2x5Z29uIGlkPSJ0aWUiIGZpbGw9IiMwRDIxOTIiIGZpbGwtcnVsZT0ibm9uemVybyIgcG9pbnRzPSIyMDUuNTM4NDA5IDE5NC4wNjIxNzIgMjMyLjYxNDU1MSAxOTQuMDYyMTcyIDIzNC45NDY2MjEgMjU3LjYzMzgzMSAyMTkuMDc2NDggMjY4Ljc1NDQzIDIwMy4yMDYzMzkgMjU3LjYzMzgzMSIvPiYjeGE7ICAgICAgICA8cmVjdCBpZD0iUmVjdGFuZ2xlLTQiIGZpbGw9IiMwRDIxOTIiIGZpbGwtcnVsZT0ibm9uemVybyIgeD0iMTQ0LjgyOTQ5NyIgeT0iMi4yNzkwODgyOSIgd2lkdGg9IjEwMi43MjI2NDMiIGhlaWdodD0iNzIuMjk0MTQ0NCIgcng9IjIiLz4mI3hhOyAgICAgICAgPHJlY3QgaWQ9IlJlY3RhbmdsZS00IiBmaWxsPSIjRkZGRkZGIiBmaWxsLXJ1bGU9Im5vbnplcm8iIG9wYWNpdHk9IjAuMDc5OTk5OTk4MiIgeD0iMTQ0LjgyOTQ5NyIgeT0iMi4yNzkwODgyOSIgd2lkdGg9IjM3Ljk5NzYzNjkiIGhlaWdodD0iNzIuMjk0MTQ0NCIvPiYjeGE7ICAgICAgICA8cmVjdCBpZD0iUmVjdGFuZ2xlLTMiIGZpbGw9IiMwRDIxOTIiIGZpbGwtcnVsZT0ibm9uemVybyIgeD0iMTEyLjM5MDc2OCIgeT0iNjkuOTA5MDk0NCIgd2lkdGg9IjE2Ni4yNDg0ODgiIGhlaWdodD0iMTcuMzUxMzQxMiIgcng9IjMuNzIwMTYiLz4mI3hhOyAgICAgICAgPHJlY3QgaWQ9IlJlY3RhbmdsZS00IiBmaWxsPSIjRkZGRkZGIiBmaWxsLXJ1bGU9Im5vbnplcm8iIG9wYWNpdHk9IjAuMDc5OTk5OTk4MiIgeD0iMTEyLjM5MDc2OCIgeT0iNjkuOTA5MDk0NCIgd2lkdGg9IjUxLjQzNzU0NzgiIGhlaWdodD0iMjEuMzU1NDk2OSIvPiYjeGE7ICAgIDwvZz4mI3hhOzwvc3ZnPg==;fontSize=10;strokeWidth=2;" parent="1" vertex="1">
                    <mxGeometry x="245.63" y="375.06" width="54.37" height="40" as="geometry"/>
                </mxCell>
                <mxCell id="42" value="在庫引当履歴" style="shape=cylinder3;whiteSpace=wrap;html=1;boundedLbl=1;backgroundOutline=1;size=7;labelPosition=center;verticalLabelPosition=bottom;align=center;verticalAlign=top;fillColor=#dae8fc;strokeColor=#6c8ebf;fontStyle=1" parent="1" vertex="1">
                    <mxGeometry x="830" y="336.4" width="250" height="120" as="geometry"/>
                </mxCell>
                <mxCell id="65" value="" style="group" parent="1" vertex="1" connectable="0">
                    <mxGeometry x="840" y="366.4" width="228.25" height="80" as="geometry"/>
                </mxCell>
                <mxCell id="44" value="リクエストID" style="text;html=1;fillColor=#f5f5f5;align=center;verticalAlign=middle;whiteSpace=wrap;rounded=0;strokeColor=#666666;fontStyle=1;fontColor=#333333;fontSize=10;" parent="65" vertex="1">
                    <mxGeometry width="68.25" height="20" as="geometry"/>
                </mxCell>
                <mxCell id="45" value="商品ID" style="text;html=1;fillColor=#f5f5f5;align=center;verticalAlign=middle;whiteSpace=wrap;rounded=0;strokeColor=#666666;fontStyle=1;fontColor=#333333;fontSize=10;" parent="65" vertex="1">
                    <mxGeometry x="68.25" width="40" height="20" as="geometry"/>
                </mxCell>
                <mxCell id="46" value="数量" style="text;html=1;fillColor=#f5f5f5;align=center;verticalAlign=middle;whiteSpace=wrap;rounded=0;strokeColor=#666666;fontStyle=1;fontColor=#333333;fontSize=10;" parent="65" vertex="1">
                    <mxGeometry x="108.25" width="30" height="20" as="geometry"/>
                </mxCell>
                <mxCell id="47" value="ステータス" style="text;html=1;fillColor=#f5f5f5;align=center;verticalAlign=middle;whiteSpace=wrap;rounded=0;strokeColor=#666666;fontStyle=1;fontColor=#333333;fontSize=10;" parent="65" vertex="1">
                    <mxGeometry x="138.25" width="60" height="20" as="geometry"/>
                </mxCell>
                <mxCell id="48" value="…" style="text;html=1;fillColor=#f5f5f5;align=center;verticalAlign=middle;whiteSpace=wrap;rounded=0;strokeColor=#666666;fontStyle=1;fontColor=#333333;fontSize=10;" parent="65" vertex="1">
                    <mxGeometry x="198.25" width="30" height="20" as="geometry"/>
                </mxCell>
                <mxCell id="49" value="123" style="text;html=1;align=center;verticalAlign=middle;whiteSpace=wrap;rounded=0;strokeColor=#b85450;fontStyle=1;fontSize=10;fillColor=#f8cecc;fontColor=#990000;" parent="65" vertex="1">
                    <mxGeometry y="20" width="68.25" height="20" as="geometry"/>
                </mxCell>
                <mxCell id="50" value="a10" style="text;html=1;align=center;verticalAlign=middle;whiteSpace=wrap;rounded=0;strokeColor=#b85450;fontStyle=1;fontSize=10;fillColor=#f8cecc;fontColor=#990000;" parent="65" vertex="1">
                    <mxGeometry x="68.25" y="20" width="40" height="20" as="geometry"/>
                </mxCell>
                <mxCell id="51" value="2" style="text;html=1;align=center;verticalAlign=middle;whiteSpace=wrap;rounded=0;strokeColor=#b85450;fontStyle=1;fontSize=10;fillColor=#f8cecc;fontColor=#990000;" parent="65" vertex="1">
                    <mxGeometry x="108.25" y="20" width="30" height="20" as="geometry"/>
                </mxCell>
                <mxCell id="52" value="PENDING" style="text;html=1;align=center;verticalAlign=middle;whiteSpace=wrap;rounded=0;strokeColor=#b85450;fontStyle=1;fontSize=10;fillColor=#f8cecc;fontColor=#990000;" parent="65" vertex="1">
                    <mxGeometry x="138.25" y="20" width="60" height="20" as="geometry"/>
                </mxCell>
                <mxCell id="53" value="..." style="text;html=1;align=center;verticalAlign=middle;whiteSpace=wrap;rounded=0;strokeColor=#b85450;fontStyle=1;fontSize=10;fillColor=#f8cecc;fontColor=#990000;" parent="65" vertex="1">
                    <mxGeometry x="198.25" y="20" width="30" height="20" as="geometry"/>
                </mxCell>
                <mxCell id="55" value="456" style="text;html=1;align=center;verticalAlign=middle;whiteSpace=wrap;rounded=0;strokeColor=#666666;fontStyle=1;fontColor=#333333;fontSize=10;fillColor=#ffffff;" parent="65" vertex="1">
                    <mxGeometry y="40" width="68.25" height="20" as="geometry"/>
                </mxCell>
                <mxCell id="56" value="a21" style="text;html=1;align=center;verticalAlign=middle;whiteSpace=wrap;rounded=0;strokeColor=#666666;fontStyle=1;fontColor=#333333;fontSize=10;fillColor=#ffffff;" parent="65" vertex="1">
                    <mxGeometry x="68.25" y="40" width="40" height="20" as="geometry"/>
                </mxCell>
                <mxCell id="57" value="1" style="text;html=1;align=center;verticalAlign=middle;whiteSpace=wrap;rounded=0;strokeColor=#666666;fontStyle=1;fontColor=#333333;fontSize=10;fillColor=#ffffff;" parent="65" vertex="1">
                    <mxGeometry x="108.25" y="40" width="30" height="20" as="geometry"/>
                </mxCell>
                <mxCell id="58" value="ALLOCATED" style="text;html=1;align=center;verticalAlign=middle;whiteSpace=wrap;rounded=0;strokeColor=#666666;fontStyle=1;fontColor=#333333;fontSize=10;fillColor=#ffffff;" parent="65" vertex="1">
                    <mxGeometry x="138.25" y="40" width="60" height="20" as="geometry"/>
                </mxCell>
                <mxCell id="59" value="..." style="text;html=1;align=center;verticalAlign=middle;whiteSpace=wrap;rounded=0;strokeColor=#666666;fontStyle=1;fontColor=#333333;fontSize=10;fillColor=#ffffff;" parent="65" vertex="1">
                    <mxGeometry x="198.25" y="40" width="30" height="20" as="geometry"/>
                </mxCell>
                <mxCell id="60" value="…" style="text;html=1;align=center;verticalAlign=middle;whiteSpace=wrap;rounded=0;strokeColor=#666666;fontStyle=1;fontColor=#333333;fontSize=10;fillColor=#ffffff;" parent="65" vertex="1">
                    <mxGeometry y="60" width="68.25" height="20" as="geometry"/>
                </mxCell>
                <mxCell id="61" value="…" style="text;html=1;align=center;verticalAlign=middle;whiteSpace=wrap;rounded=0;strokeColor=#666666;fontStyle=1;fontColor=#333333;fontSize=10;fillColor=#ffffff;" parent="65" vertex="1">
                    <mxGeometry x="68.25" y="60" width="40" height="20" as="geometry"/>
                </mxCell>
                <mxCell id="62" value="…" style="text;html=1;align=center;verticalAlign=middle;whiteSpace=wrap;rounded=0;strokeColor=#666666;fontStyle=1;fontColor=#333333;fontSize=10;fillColor=#ffffff;" parent="65" vertex="1">
                    <mxGeometry x="108.25" y="60" width="30" height="20" as="geometry"/>
                </mxCell>
                <mxCell id="63" value="…" style="text;html=1;align=center;verticalAlign=middle;whiteSpace=wrap;rounded=0;strokeColor=#666666;fontStyle=1;fontColor=#333333;fontSize=10;fillColor=#ffffff;" parent="65" vertex="1">
                    <mxGeometry x="138.25" y="60" width="60" height="20" as="geometry"/>
                </mxCell>
                <mxCell id="64" value="…" style="text;html=1;align=center;verticalAlign=middle;whiteSpace=wrap;rounded=0;strokeColor=#666666;fontStyle=1;fontColor=#333333;fontSize=10;fillColor=#ffffff;" parent="65" vertex="1">
                    <mxGeometry x="198.25" y="60" width="30" height="20" as="geometry"/>
                </mxCell>
                <mxCell id="68" value="リクエストID 123 が&lt;br&gt;既に履歴に登録されている場合、&lt;br&gt;処理せずに200 OKで折り返す" style="ellipse;shape=cloud;whiteSpace=wrap;html=1;fontSize=10;strokeColor=#b85450;fillColor=#f8cecc;fontStyle=1;fontColor=#990000;" parent="1" vertex="1">
                    <mxGeometry x="676" y="432" width="220" height="70" as="geometry"/>
                </mxCell>
                <mxCell id="69" value="" style="endArrow=classic;html=1;fontSize=10;fontColor=#6600CC;" parent="1" source="15" target="42" edge="1">
                    <mxGeometry width="50" height="50" relative="1" as="geometry">
                        <mxPoint x="750" y="614" as="sourcePoint"/>
                        <mxPoint x="690" y="390" as="targetPoint"/>
                    </mxGeometry>
                </mxCell>
                <mxCell id="70" value="200 OK" style="curved=1;endArrow=classic;html=1;fontSize=12;fontColor=#990000;entryX=1;entryY=0.75;entryDx=0;entryDy=0;strokeWidth=2;fillColor=#f8cecc;strokeColor=#b85450;fontStyle=1" parent="1" source="15" target="19" edge="1">
                    <mxGeometry width="50" height="50" relative="1" as="geometry">
                        <mxPoint x="470" y="480" as="sourcePoint"/>
                        <mxPoint x="520" y="430" as="targetPoint"/>
                        <Array as="points">
                            <mxPoint x="710" y="450"/>
                            <mxPoint x="670" y="440"/>
                        </Array>
                    </mxGeometry>
                </mxCell>
            </root>
        </mxGraphModel>
    </diagram>
</mxfile>